<?xml version="1.0" encoding="utf-8"?><svg viewBox="0 0 502.66 502.66" xmlns="http://www.w3.org/2000/svg" xmlns:xlink="http://www.w3.org/1999/xlink"><style>:root>svg{display:none}:root>svg:target{display:block}</style><svg viewBox="0 0 166 64" id="Group_26" xmlns="http://www.w3.org/2000/svg"><path d="M2.688 55.24c-.272 0-.488-.08-.648-.24-.16-.176-.24-.416-.24-.72v-9.384c0-2.176.608-3.872 1.824-5.088 1.232-1.232 2.936-1.848 5.112-1.848 2.16 0 3.856.616 5.088 1.848 1.232 1.232 1.848 2.928 1.848 5.088v9.384c0 .304-.08.544-.24.72-.16.16-.384.24-.672.24a.96.96 0 01-.672-.24c-.16-.176-.24-.416-.24-.72v-5.4H3.6v5.4c0 .304-.08.544-.24.72-.16.16-.384.24-.672.24zm11.16-7.848v-2.568c0-1.712-.44-3.024-1.32-3.936-.88-.928-2.144-1.392-3.792-1.392-1.664 0-2.936.456-3.816 1.368-.88.912-1.32 2.232-1.32 3.96v2.568h10.248zm10.213 7.848c-1.568 0-2.8-.448-3.696-1.344-.88-.896-1.32-2.144-1.32-3.744V43.96c0-.304.08-.536.24-.696.16-.176.376-.264.648-.264s.48.088.624.264c.16.16.24.392.24.696v6.192c0 1.136.304 2.016.912 2.64.608.624 1.456.936 2.544.936.864 0 1.632-.192 2.304-.576a3.973 3.973 0 001.56-1.608c.384-.688.576-1.48.576-2.376V43.96c0-.304.072-.536.216-.696.16-.176.384-.264.672-.264.272 0 .48.088.624.264.16.16.24.392.24.696v10.32c0 .304-.08.544-.24.72-.144.16-.352.24-.624.24-.288 0-.512-.088-.672-.264-.144-.176-.216-.408-.216-.696v-1.416c-.592.768-1.28 1.36-2.064 1.776-.784.4-1.64.6-2.568.6zm17.768-2.616c.176.144.264.312.264.504 0 .16-.072.352-.216.576-.336.464-.8.84-1.392 1.128-.592.272-1.2.408-1.824.408-1.056 0-1.888-.312-2.496-.936-.608-.624-.912-1.48-.912-2.568v-7.032h-1.296c-.64 0-.96-.248-.96-.744 0-.224.08-.4.24-.528.176-.128.416-.192.72-.192h1.296v-4.104c0-.304.072-.536.216-.696.16-.176.384-.264.672-.264.272 0 .48.088.624.264.16.16.24.392.24.696v4.104h3.264c.288 0 .512.064.672.192.176.112.264.288.264.528 0 .496-.312.744-.936.744h-3.264v7.176c0 1.232.576 1.848 1.728 1.848.368 0 .704-.072 1.008-.216.304-.144.608-.376.912-.696.24-.256.472-.384.696-.384.144 0 .304.064.48.192zm8.202 2.616c-1.392 0-2.584-.28-3.576-.84-.992-.56-1.744-1.304-2.256-2.232a6.456 6.456 0 01-.744-3.048c0-1.088.248-2.096.744-3.024.512-.944 1.264-1.696 2.256-2.256.992-.56 2.184-.84 3.576-.84s2.576.28 3.552.84c.992.56 1.736 1.312 2.232 2.256.512.928.768 1.936.768 3.024a6.294 6.294 0 01-.768 3.048c-.496.928-1.24 1.672-2.232 2.232-.976.56-2.16.84-3.552.84zm0-1.512c1.44 0 2.592-.408 3.456-1.224.88-.816 1.32-1.944 1.32-3.384s-.44-2.568-1.32-3.384c-.864-.816-2.016-1.224-3.456-1.224-1.456 0-2.624.408-3.504 1.224-.864.816-1.296 1.944-1.296 3.384s.432 2.568 1.296 3.384c.88.816 2.048 1.224 3.504 1.224zm9.45-12.528c0-.912.263-1.64.791-2.184.544-.544 1.328-.816 2.352-.816h4.488c4.352 0 6.528 1.808 6.528 5.424 0 1.744-.528 3.064-1.584 3.96-1.056.896-2.648 1.344-4.776 1.344l4.656 4.824a.748.748 0 01.216.552c0 .288-.12.52-.36.696a.987.987 0 01-.6.216c-.32 0-.624-.16-.912-.48l-5.52-5.808h-3.24v5.28c0 .32-.096.576-.288.768-.176.176-.424.264-.744.264s-.568-.088-.744-.264c-.176-.192-.264-.448-.264-.768V41.2zm7.751 6.072c1.472 0 2.56-.272 3.264-.816.72-.56 1.08-1.504 1.08-2.832 0-1.344-.36-2.304-1.08-2.88-.72-.592-1.808-.888-3.264-.888h-4.488c-.368 0-.664.12-.888.36-.224.24-.336.568-.336.984v6.072h5.712zM81.81 55.24c-2.08 0-3.688-.536-4.824-1.608-1.136-1.072-1.704-2.592-1.704-4.56 0-1.888.576-3.368 1.728-4.44C78.162 43.544 79.738 43 81.738 43c1.232 0 2.328.2 3.288.6.96.384 1.704.936 2.232 1.656.544.704.816 1.512.816 2.424 0 .672-.192 1.192-.576 1.56-.368.368-.88.552-1.536.552h-8.88c0 1.232.416 2.2 1.248 2.904.832.688 1.992 1.032 3.48 1.032.912 0 1.696-.096 2.352-.288a5.903 5.903 0 001.848-.984c.304-.256.552-.384.744-.384.144 0 .28.064.408.192.224.192.336.392.336.6 0 .16-.096.336-.288.528a6.27 6.27 0 01-2.304 1.392c-.88.304-1.912.456-3.096.456zm3.624-6.864c.288 0 .504-.056.648-.168.144-.128.216-.352.216-.672 0-.576-.192-1.096-.576-1.56-.384-.464-.928-.824-1.632-1.08-.688-.256-1.472-.384-2.352-.384-1.424 0-2.552.352-3.384 1.056-.816.688-1.224 1.624-1.224 2.808h8.304zm6.243 6.864c-.272 0-.488-.08-.648-.24-.144-.176-.216-.416-.216-.72V43.96c0-.304.072-.536.216-.696.144-.176.36-.264.648-.264.272 0 .48.088.624.264.16.16.24.392.24.696v1.416c.592-.784 1.304-1.376 2.136-1.776.848-.4 1.776-.6 2.784-.6 1.52 0 2.688.424 3.504 1.272.832.848 1.248 2.064 1.248 3.648v6.36c0 .304-.08.544-.24.72-.16.16-.376.24-.648.24-.288 0-.504-.08-.648-.24-.144-.176-.216-.416-.216-.72v-6.36c0-2.272-1.072-3.408-3.216-3.408-1.408 0-2.544.416-3.408 1.248-.848.832-1.272 1.936-1.272 3.312v5.208c0 .288-.08.52-.24.696-.144.176-.36.264-.648.264zm21.8-2.616c.176.144.264.312.264.504 0 .16-.072.352-.216.576-.336.464-.8.84-1.392 1.128-.592.272-1.2.408-1.824.408-1.056 0-1.888-.312-2.496-.936-.608-.624-.912-1.48-.912-2.568v-7.032h-1.296c-.64 0-.96-.248-.96-.744 0-.224.08-.4.24-.528.176-.128.416-.192.72-.192h1.296v-4.104c0-.304.072-.536.216-.696.16-.176.384-.264.672-.264.272 0 .48.088.624.264.16.16.24.392.24.696v4.104h3.264c.288 0 .512.064.672.192.176.112.264.288.264.528 0 .496-.312.744-.936.744h-3.264v7.176c0 1.232.576 1.848 1.728 1.848.368 0 .704-.072 1.008-.216.304-.144.608-.376.912-.696.24-.256.472-.384.696-.384.144 0 .304.064.48.192zm3.94 2.616c-.272 0-.488-.08-.648-.24-.16-.176-.24-.416-.24-.72V38.92c0-.304.08-.536.24-.696.16-.176.376-.264.648-.264.288 0 .512.088.672.264.16.16.24.392.24.696v6.696h10.536V38.92c0-.304.08-.536.24-.696.16-.176.384-.264.672-.264.272 0 .488.088.648.264.16.16.24.392.24.696v15.36c0 .304-.08.544-.24.72-.16.16-.376.24-.648.24a.96.96 0 01-.672-.24c-.16-.176-.24-.416-.24-.72v-7.152h-10.536v7.152c0 .304-.08.544-.24.72-.16.16-.384.24-.672.24zm21.746 0c-1.568 0-2.8-.448-3.696-1.344-.88-.896-1.32-2.144-1.32-3.744V43.96c0-.304.08-.536.24-.696.16-.176.376-.264.648-.264s.48.088.624.264c.16.16.24.392.24.696v6.192c0 1.136.304 2.016.912 2.64.608.624 1.456.936 2.544.936.864 0 1.632-.192 2.304-.576a3.973 3.973 0 001.56-1.608c.384-.688.576-1.48.576-2.376V43.96c0-.304.072-.536.216-.696.16-.176.384-.264.671-.264.273 0 .481.088.625.264.16.16.24.392.24.696v10.32c0 .304-.08.544-.24.72-.144.16-.352.24-.625.24-.287 0-.511-.088-.671-.264-.144-.176-.216-.408-.216-.696v-1.416c-.592.768-1.28 1.36-2.064 1.776-.784.4-1.64.6-2.568.6zm10.591 0c-.272 0-.488-.08-.648-.24-.144-.176-.216-.416-.216-.72V37.744c0-.304.072-.536.216-.696.16-.176.376-.264.648-.264s.488.088.648.264c.16.16.24.392.24.696l.024 7.704c1.344-1.632 3.064-2.448 5.16-2.448 1.296 0 2.424.248 3.384.744a5.174 5.174 0 012.208 2.136c.528.912.792 1.992.792 3.24 0 1.952-.56 3.464-1.68 4.536-1.12 1.056-2.696 1.584-4.728 1.584-2.256 0-3.976-.832-5.16-2.496v1.536c0 .288-.08.52-.24.696-.144.176-.36.264-.648.264zm5.928-1.512c1.568 0 2.752-.384 3.552-1.152.8-.784 1.2-1.936 1.2-3.456 0-1.44-.424-2.568-1.272-3.384-.848-.816-2.008-1.224-3.48-1.224-.96 0-1.824.2-2.592.6a4.339 4.339 0 00-1.8 1.632c-.432.704-.648 1.496-.648 2.376 0 1.424.448 2.552 1.344 3.384.896.816 2.128 1.224 3.696 1.224zM85.313.022c-2.842.243-4.184.478-6.2 1.069l-.932.273.493.5c.272.28.5.538.5.576 0 .046-.69.478-1.539.978-4.328 2.539-7.996 4.927-9.042 5.882-.311.28-.326.288-1.122.34-1.72.122-3.373-.212-4.335-.871l-.334-.235-.894.083c-5.147.493-11.142 1.357-13.386 1.926-.583.151-1.235.272-1.447.272-1.266 0-3.214.872-4.768 2.13-.56.455-.75.561-1.28.72-1.001.296-1.623.546-2.63 1.069-1.229.63-2.206 1.327-3.124 2.228l-.742.736v.401c0 .516.136 2.691.227 3.623l.068.705-.417.591-.409.592.432.204c2.153 1 6.147 1.759 10.02 1.903l1.364.053.023-.713.023-.705.318-.06c.569-.091.705-.008 1.046.667.417.834.728 1.258 1.433 1.986 1.28 1.318 2.63 2.03 4.456 2.334 2.38.394 4.76-.333 6.617-2.031.592-.538 1.35-1.562 1.683-2.259.152-.31.31-.591.356-.629.046-.03.341-.046.652-.038l.569.023-.016.5-.015.508.546.045c.568.046 23.292.16 32.039.16h5.04v-.417c.007-.228.03-.463.06-.516.046-.06.266-.09.66-.09h.599l.31.583c.88 1.69 2.479 3.123 4.184 3.744 1.046.387 1.577.47 2.865.478 1.19.007 1.531-.046 2.502-.349 1.849-.584 3.463-1.993 4.479-3.91l.258-.486.97-.038c1.084-.038 1.19-.008 1.19.402 0 .235.008.25.25.212 1.774-.25 8.436-1.182 8.694-1.213.629-.083.924-.288 1.925-1.364.53-.569 1.023-1.16 1.107-1.326.166-.326.197-.918.068-1.259-.144-.371-.091-1.796.121-3.206.349-2.258.28-2.456-1.288-3.979-.948-.925-1.122-1.13-1.327-1.576-.121-.281-.242-.508-.258-.508-.007 0-.818-.205-1.796-.455l-1.774-.447V9.45l.008-.379h-.462c-.25 0-.69-.023-.97-.053l-.516-.045.015-.402c.015-.227.008-.425-.015-.44-.015-.022-.424.015-.902.076-.477.053-.902.106-.932.106-.038 0-.053-.25-.046-.553.008-.296-.007-.561-.038-.576-.03-.015-.386.03-.795.106l-.743.136-.902-.326c-1.69-.606-6.352-2.13-8.216-2.69C101.389 1.864 96.023.65 91.111.166c-1.136-.113-5.04-.212-5.798-.144zm6.064 2.35c1.622.151 3.35.402 3.471.5.053.053.091.16.068.243-.03.151-.447 1.5-1.462 4.722l-.432 1.38-.463.037c-.257.023-2.22.099-4.366.16-2.145.067-4.805.15-5.912.189-1.106.038-2.781.09-3.729.121l-1.72.053-.046-.296c-.227-1.387-.94-2.304-1.796-2.304-1.061 0-2.456.902-3.449 2.236-.371.5-.47.554-1.099.561-.462.008-.591-.076-.424-.273.136-.174 5.965-4.047 7.155-4.767 2-1.198 3.873-1.978 5.487-2.297 2.32-.44 5.723-.546 8.717-.265zm7.337 1.288c5.177 1.281 9.497 2.91 9.899 3.737.174.356.015.569-.561.75-.493.16-3.1.387-8.452.728-2.402.16-3.054.167-3.16.06-.068-.067-.038-.72.121-2.796.121-1.493.227-2.736.25-2.774.068-.114.53-.046 1.903.295zm-4.92 5.844c.175.205.455.652.63 1l.326.637-.008.88c0 .644-.045 1.053-.167 1.523-.477 1.85-1.72 4.434-2.781 5.798-1.486 1.903-3.373 3.138-5.42 3.555-.44.084-1.614.129-5.078.197-4.358.076-8.701.167-12.893.273-1.364.038-2.031.03-2.061-.023-.06-.098-.569-6.609-.637-8.057-.046-1.16.038-1.857.318-2.675.448-1.281 1.903-3.138 2.214-2.835.022.03-.213.318-.516.644-.621.667-.962 1.19-1.273 1.963-.334.827-.417 1.281-.425 2.297 0 1.357.554 8.118.675 8.246.083.084.796.084 4.032.016 2.16-.046 6.443-.13 9.505-.19 6.162-.113 6.079-.106 7.443-.644.856-.334 1.978-1.054 2.759-1.774 1.053-.97 1.88-2.25 2.903-4.51.88-1.963 1.008-2.38 1.053-3.387.046-1.22-.19-1.964-.864-2.684-.182-.197-.333-.409-.333-.485 0-.235.288-.121.599.235zm-46.31 1.493c.068.084.008.205-.303.576-.932 1.107-2.721 2.471-4.184 3.184-1.319.636-2.827 1.069-2.971.841-.175-.296 1.538-1.918 3.16-2.986 1.13-.743 2.57-1.387 3.661-1.637.44-.099.538-.099.637.022zm80.941 1.418c.182.356.349.78.372.955l.038.303-1.152.045a97.09 97.09 0 01-3.434.053c-2.069 0-2.334-.015-2.857-.159-.637-.167-1.857-.742-1.835-.864.008-.106.273-.144 4.033-.568a992.82 992.82 0 003.6-.402 3.31 3.31 0 01.568-.023l.341.008.326.652zm-72.823 2.698c1.144.28 2.615 1.099 3.38 1.88.773.796 1.44 2.107 1.668 3.274.303 1.607-.046 3.16-1.062 4.677-.917 1.38-1.819 2.069-3.342 2.592-.819.273-2.122.333-3.07.144-.97-.197-2.122-.652-2.638-1.046-1.197-.925-2.084-2.213-2.455-3.578-.538-1.963.075-4.502 1.462-5.98a6.906 6.906 0 014.048-2.122c.386-.053 1.493.03 2.009.159zm55.133-.015c1.099.288 1.917.735 2.751 1.508 2.342 2.175 2.805 5.473 1.16 8.24-.804 1.356-2.244 2.417-3.828 2.826-.674.175-1.834.288-2.349.235-2.479-.258-4.889-2.372-5.534-4.85-.485-1.865.099-4.306 1.395-5.852 1.478-1.766 4.237-2.668 6.405-2.107zm-72.922 2.804c.575.152.94.341 1.288.682.258.258.66.918.66 1.1 0 .045-.418.075-1.175.075H37.41v.447l-.842.023c-.462.015-.902 0-.97-.03-.083-.03-.151-.16-.182-.326a.835.835 0 00-.242-.455c-.326-.303-.243-.871.174-1.212.485-.387 1.615-.523 2.464-.304zm-.387 2.676c.045.045.083.28.09.523l.009.44-.85.022c-.962.023-.947.03-1.045-.621-.038-.273-.023-.387.053-.44.129-.09 1.644-.023 1.743.076zm-.015 1.303c0 .145-.228.637-.364.781-.167.182-.644.432-.834.432-.121 0-.166-.098-.265-.591-.06-.318-.099-.606-.076-.644.053-.084 1.539-.068 1.539.022z"/><path d="M53.108 15.552c-2.713.591-4.244 2.259-4.669 5.094-.136.91-.136 1.41-.007 2.145.318 1.735 1.349 3.047 3.039 3.865 1.114.538 1.85.713 2.918.705 3.07-.015 5.495-2.137 5.927-5.17.197-1.401-.371-3.334-1.341-4.57-1.296-1.644-3.767-2.523-5.867-2.069zm55.224-.038c-1.364.243-2.433.78-3.32 1.668-.545.538-.712.765-1.031 1.417-.523 1.038-.667 1.69-.667 2.979.008.97.023 1.061.251 1.675.826 2.175 2.319 3.54 4.35 3.98.758.158 2.229.158 2.865-.008 1.774-.455 3.078-1.448 3.782-2.858.478-.97.63-1.652.637-2.865.008-1.235-.114-1.789-.591-2.767-.735-1.515-1.903-2.5-3.6-3.07-.554-.189-2.032-.272-2.676-.15zM76.56 2.092c-1.304.598-2.267 1.06-5.648 2.72-1.023.5-2.705 1.327-3.751 1.835-1.79.88-3.343 1.614-3.745 1.789-.174.075-.166.083.213.25 1.068.455 3.388.765 4.138.546.129-.03 1.236-.728 2.463-1.54 2.903-1.917 5.336-3.47 6.898-4.403.69-.41 1.28-.773 1.319-.81.06-.061-.463-.979-.561-.979-.023 0-.614.266-1.327.592z"/></svg><svg viewBox="0 0 32 32" id="bxl-telegram_1" xmlns="http://www.w3.org/2000/svg"><path d="M27.553 4.956l-23.64 9.116c-1.613.648-1.604 1.548-.296 1.95l6.07 1.892 14.042-8.86c.664-.404 1.27-.186.772.256L13.124 19.578h-.003l.003.002-.419 6.256c.614 0 .884-.282 1.228-.614l2.948-2.866 6.132 4.53c1.13.622 1.943.302 2.224-1.048l4.026-18.97c.411-1.652-.631-2.4-1.71-1.912z"/></svg><svg viewBox="0 0 35 35" id="bxl-vk_1" xmlns="http://www.w3.org/2000/svg"><path d="M31.47 9.997c.204-.678 0-1.176-.966-1.176h-3.198c-.814 0-1.186.43-1.39.903 0 0-1.626 3.965-3.93 6.536-.744.748-1.083.985-1.489.985-.203 0-.497-.237-.497-.915V9.997c0-.814-.235-1.176-.913-1.176h-5.025c-.508 0-.814.377-.814.735 0 .77 1.152.948 1.27 3.118v4.708c0 1.03-.185 1.219-.594 1.219-1.083 0-3.72-3.98-5.285-8.536-.304-.885-.612-1.242-1.429-1.242H4.014c-.915 0-1.097.43-1.097.902 0 .85 1.084 5.05 5.047 10.604 2.643 3.793 6.363 5.85 9.752 5.85 2.032 0 2.282-.457 2.282-1.245v-2.867c0-.913.194-1.096.837-1.096.473 0 1.287.239 3.184 2.066 2.167 2.167 2.526 3.14 3.744 3.14h3.196c.913 0 1.37-.456 1.107-1.358-.287-.897-1.323-2.202-2.696-3.746-.747-.881-1.863-1.829-2.202-2.303-.474-.611-.337-.88 0-1.423.001.001 3.896-5.485 4.302-7.35z"/></svg><svg viewBox="0 0 502.664 502.664" id="icon" xmlns="http://www.w3.org/2000/svg"><path d="M153.821 358.226L0 274.337v-46.463l153.821-83.414v54.574L46.636 250.523l107.185 53.431v54.272zm26.273 29.358L282.103 115.08h32.227L212.084 387.584h-31.99zm168.749-29.358v-54.272l107.164-52.999-107.164-52.59v-53.927l153.821 83.522v46.183l-153.821 84.083z"/></svg><svg viewBox="0 0 31 31" id="keys_rzqydpxvbjs1_4" xmlns="http://www.w3.org/2000/svg"><g clip-path="url(#ea)"><path d="M9.262 16.078a8.398 8.398 0 01.051-2.67 8.294 8.294 0 012.308-4.404 8.287 8.287 0 015.9-2.44c1.26 0 2.476.276 3.579.8a3.336 3.336 0 00-3.124-2.178H3.33A3.334 3.334 0 000 8.516v4.232a3.334 3.334 0 003.33 3.33h5.932z"/><path d="M28.87 3.75a7.222 7.222 0 00-5.14-2.13 7.217 7.217 0 00-4.828 1.836c.704.13 1.368.406 1.952.8a5.417 5.417 0 012.876-.819 5.42 5.42 0 013.857 1.597 5.418 5.418 0 011.597 3.857 5.418 5.418 0 01-1.598 3.856 5.419 5.419 0 01-3.856 1.598 5.418 5.418 0 01-3.856-1.598.908.908 0 10-1.285 1.285 7.222 7.222 0 005.141 2.13 7.222 7.222 0 005.14-2.13A7.222 7.222 0 0031 8.89a7.222 7.222 0 00-2.13-5.141z"/><path d="M16.506 13.39c0-.729.284-1.413.799-1.927a2.707 2.707 0 011.926-.798c.728 0 1.412.283 1.927.798a3.61 3.61 0 002.439 1.062 6.486 6.486 0 00-1.46-2.236 6.534 6.534 0 00-9.231 0 6.524 6.524 0 00-1.595 6.623l-7.353 7.352a.908.908 0 00-.252.48L3.06 28.31a.908.908 0 001.056 1.055l3.565-.647a.908.908 0 00.651-.49l.787-1.583 1.033-.318a.908.908 0 00.6-.601l.292-.947.947-.292a.908.908 0 00.601-.6l.292-.947.947-.292a.908.908 0 00.375-.226l1.308-1.308a6.523 6.523 0 007.77-3.147 9.02 9.02 0 01-5.98-2.651 2.707 2.707 0 01-.798-1.927z"/></g><defs><clipPath id="ea"><path d="M0 0h31v31H0z"/></clipPath></defs></svg><svg viewBox="0 0 166 64" id="logo1" xmlns="http://www.w3.org/2000/svg"><path d="M2.688 55.24c-.272 0-.488-.08-.648-.24-.16-.176-.24-.416-.24-.72v-9.384c0-2.176.608-3.872 1.824-5.088 1.232-1.232 2.936-1.848 5.112-1.848 2.16 0 3.856.616 5.088 1.848 1.232 1.232 1.848 2.928 1.848 5.088v9.384c0 .304-.08.544-.24.72-.16.16-.384.24-.672.24a.96.96 0 01-.672-.24c-.16-.176-.24-.416-.24-.72v-5.4H3.6v5.4c0 .304-.08.544-.24.72-.16.16-.384.24-.672.24zm11.16-7.848v-2.568c0-1.712-.44-3.024-1.32-3.936-.88-.928-2.144-1.392-3.792-1.392-1.664 0-2.936.456-3.816 1.368-.88.912-1.32 2.232-1.32 3.96v2.568h10.248zm10.213 7.848c-1.568 0-2.8-.448-3.696-1.344-.88-.896-1.32-2.144-1.32-3.744V43.96c0-.304.08-.536.24-.696.16-.176.376-.264.648-.264s.48.088.624.264c.16.16.24.392.24.696v6.192c0 1.136.304 2.016.912 2.64.608.624 1.456.936 2.544.936.864 0 1.632-.192 2.304-.576a3.973 3.973 0 001.56-1.608c.384-.688.576-1.48.576-2.376V43.96c0-.304.072-.536.216-.696.16-.176.384-.264.672-.264.272 0 .48.088.624.264.16.16.24.392.24.696v10.32c0 .304-.08.544-.24.72-.144.16-.352.24-.624.24-.288 0-.512-.088-.672-.264-.144-.176-.216-.408-.216-.696v-1.416c-.592.768-1.28 1.36-2.064 1.776-.784.4-1.64.6-2.568.6zm17.768-2.616c.176.144.264.312.264.504 0 .16-.072.352-.216.576-.336.464-.8.84-1.392 1.128-.592.272-1.2.408-1.824.408-1.056 0-1.888-.312-2.496-.936-.608-.624-.912-1.48-.912-2.568v-7.032h-1.296c-.64 0-.96-.248-.96-.744 0-.224.08-.4.24-.528.176-.128.416-.192.72-.192h1.296v-4.104c0-.304.072-.536.216-.696.16-.176.384-.264.672-.264.272 0 .48.088.624.264.16.16.24.392.24.696v4.104h3.264c.288 0 .512.064.672.192.176.112.264.288.264.528 0 .496-.312.744-.936.744h-3.264v7.176c0 1.232.576 1.848 1.728 1.848.368 0 .704-.072 1.008-.216.304-.144.608-.376.912-.696.24-.256.472-.384.696-.384.144 0 .304.064.48.192zm8.202 2.616c-1.392 0-2.584-.28-3.576-.84-.992-.56-1.744-1.304-2.256-2.232a6.456 6.456 0 01-.744-3.048c0-1.088.248-2.096.744-3.024.512-.944 1.264-1.696 2.256-2.256.992-.56 2.184-.84 3.576-.84s2.576.28 3.552.84c.992.56 1.736 1.312 2.232 2.256.512.928.768 1.936.768 3.024a6.294 6.294 0 01-.768 3.048c-.496.928-1.24 1.672-2.232 2.232-.976.56-2.16.84-3.552.84zm0-1.512c1.44 0 2.592-.408 3.456-1.224.88-.816 1.32-1.944 1.32-3.384s-.44-2.568-1.32-3.384c-.864-.816-2.016-1.224-3.456-1.224-1.456 0-2.624.408-3.504 1.224-.864.816-1.296 1.944-1.296 3.384s.432 2.568 1.296 3.384c.88.816 2.048 1.224 3.504 1.224zm9.45-12.528c0-.912.263-1.64.791-2.184.544-.544 1.328-.816 2.352-.816h4.488c4.352 0 6.528 1.808 6.528 5.424 0 1.744-.528 3.064-1.584 3.96-1.056.896-2.648 1.344-4.776 1.344l4.656 4.824a.748.748 0 01.216.552c0 .288-.12.52-.36.696a.987.987 0 01-.6.216c-.32 0-.624-.16-.912-.48l-5.52-5.808h-3.24v5.28c0 .32-.096.576-.288.768-.176.176-.424.264-.744.264s-.568-.088-.744-.264c-.176-.192-.264-.448-.264-.768V41.2zm7.751 6.072c1.472 0 2.56-.272 3.264-.816.72-.56 1.08-1.504 1.08-2.832 0-1.344-.36-2.304-1.08-2.88-.72-.592-1.808-.888-3.264-.888h-4.488c-.368 0-.664.12-.888.36-.224.24-.336.568-.336.984v6.072h5.712zM81.81 55.24c-2.08 0-3.688-.536-4.824-1.608-1.136-1.072-1.704-2.592-1.704-4.56 0-1.888.576-3.368 1.728-4.44C78.162 43.544 79.738 43 81.738 43c1.232 0 2.328.2 3.288.6.96.384 1.704.936 2.232 1.656.544.704.816 1.512.816 2.424 0 .672-.192 1.192-.576 1.56-.368.368-.88.552-1.536.552h-8.88c0 1.232.416 2.2 1.248 2.904.832.688 1.992 1.032 3.48 1.032.912 0 1.696-.096 2.352-.288a5.903 5.903 0 001.848-.984c.304-.256.552-.384.744-.384.144 0 .28.064.408.192.224.192.336.392.336.6 0 .16-.096.336-.288.528a6.27 6.27 0 01-2.304 1.392c-.88.304-1.912.456-3.096.456zm3.624-6.864c.288 0 .504-.056.648-.168.144-.128.216-.352.216-.672 0-.576-.192-1.096-.576-1.56-.384-.464-.928-.824-1.632-1.08-.688-.256-1.472-.384-2.352-.384-1.424 0-2.552.352-3.384 1.056-.816.688-1.224 1.624-1.224 2.808h8.304zm6.243 6.864c-.272 0-.488-.08-.648-.24-.144-.176-.216-.416-.216-.72V43.96c0-.304.072-.536.216-.696.144-.176.36-.264.648-.264.272 0 .48.088.624.264.16.16.24.392.24.696v1.416c.592-.784 1.304-1.376 2.136-1.776.848-.4 1.776-.6 2.784-.6 1.52 0 2.688.424 3.504 1.272.832.848 1.248 2.064 1.248 3.648v6.36c0 .304-.08.544-.24.72-.16.16-.376.24-.648.24-.288 0-.504-.08-.648-.24-.144-.176-.216-.416-.216-.72v-6.36c0-2.272-1.072-3.408-3.216-3.408-1.408 0-2.544.416-3.408 1.248-.848.832-1.272 1.936-1.272 3.312v5.208c0 .288-.08.52-.24.696-.144.176-.36.264-.648.264zm21.8-2.616c.176.144.264.312.264.504 0 .16-.072.352-.216.576-.336.464-.8.84-1.392 1.128-.592.272-1.2.408-1.824.408-1.056 0-1.888-.312-2.496-.936-.608-.624-.912-1.48-.912-2.568v-7.032h-1.296c-.64 0-.96-.248-.96-.744 0-.224.08-.4.24-.528.176-.128.416-.192.72-.192h1.296v-4.104c0-.304.072-.536.216-.696.16-.176.384-.264.672-.264.272 0 .48.088.624.264.16.16.24.392.24.696v4.104h3.264c.288 0 .512.064.672.192.176.112.264.288.264.528 0 .496-.312.744-.936.744h-3.264v7.176c0 1.232.576 1.848 1.728 1.848.368 0 .704-.072 1.008-.216.304-.144.608-.376.912-.696.24-.256.472-.384.696-.384.144 0 .304.064.48.192zm3.94 2.616c-.272 0-.488-.08-.648-.24-.16-.176-.24-.416-.24-.72V38.92c0-.304.08-.536.24-.696.16-.176.376-.264.648-.264.288 0 .512.088.672.264.16.16.24.392.24.696v6.696h10.536V38.92c0-.304.08-.536.24-.696.16-.176.384-.264.672-.264.272 0 .488.088.648.264.16.16.24.392.24.696v15.36c0 .304-.08.544-.24.72-.16.16-.376.24-.648.24a.96.96 0 01-.672-.24c-.16-.176-.24-.416-.24-.72v-7.152h-10.536v7.152c0 .304-.08.544-.24.72-.16.16-.384.24-.672.24zm21.746 0c-1.568 0-2.8-.448-3.696-1.344-.88-.896-1.32-2.144-1.32-3.744V43.96c0-.304.08-.536.24-.696.16-.176.376-.264.648-.264s.48.088.624.264c.16.16.24.392.24.696v6.192c0 1.136.304 2.016.912 2.64.608.624 1.456.936 2.544.936.864 0 1.632-.192 2.304-.576a3.973 3.973 0 001.56-1.608c.384-.688.576-1.48.576-2.376V43.96c0-.304.072-.536.216-.696.16-.176.384-.264.671-.264.273 0 .481.088.625.264.16.16.24.392.24.696v10.32c0 .304-.08.544-.24.72-.144.16-.352.24-.625.24-.287 0-.511-.088-.671-.264-.144-.176-.216-.408-.216-.696v-1.416c-.592.768-1.28 1.36-2.064 1.776-.784.4-1.64.6-2.568.6zm10.591 0c-.272 0-.488-.08-.648-.24-.144-.176-.216-.416-.216-.72V37.744c0-.304.072-.536.216-.696.16-.176.376-.264.648-.264s.488.088.648.264c.16.16.24.392.24.696l.024 7.704c1.344-1.632 3.064-2.448 5.16-2.448 1.296 0 2.424.248 3.384.744a5.174 5.174 0 012.208 2.136c.528.912.792 1.992.792 3.24 0 1.952-.56 3.464-1.68 4.536-1.12 1.056-2.696 1.584-4.728 1.584-2.256 0-3.976-.832-5.16-2.496v1.536c0 .288-.08.52-.24.696-.144.176-.36.264-.648.264zm5.928-1.512c1.568 0 2.752-.384 3.552-1.152.8-.784 1.2-1.936 1.2-3.456 0-1.44-.424-2.568-1.272-3.384-.848-.816-2.008-1.224-3.48-1.224-.96 0-1.824.2-2.592.6a4.339 4.339 0 00-1.8 1.632c-.432.704-.648 1.496-.648 2.376 0 1.424.448 2.552 1.344 3.384.896.816 2.128 1.224 3.696 1.224zM85.313.022c-2.842.243-4.184.478-6.2 1.07l-.932.272.493.5c.272.28.5.538.5.576 0 .046-.69.478-1.539.978-4.328 2.54-7.996 4.927-9.042 5.882-.311.28-.326.288-1.122.34-1.72.122-3.373-.211-4.335-.87l-.334-.236-.894.084c-5.147.492-11.142 1.356-13.386 1.925-.583.151-1.235.273-1.447.273-1.266 0-3.214.871-4.768 2.13-.56.454-.75.56-1.28.72-1.001.295-1.623.545-2.63 1.068-1.229.63-2.206 1.327-3.124 2.229l-.742.735v.402c0 .515.136 2.69.227 3.623l.068.704-.417.592-.409.59.432.205c2.153 1.001 6.147 1.759 10.02 1.903l1.364.053.023-.712.023-.705.318-.061c.569-.09.705-.008 1.046.667.417.834.728 1.258 1.433 1.986 1.28 1.319 2.63 2.031 4.456 2.334 2.38.395 4.76-.333 6.617-2.031.592-.538 1.35-1.561 1.683-2.259.152-.31.31-.59.356-.629.046-.03.341-.045.652-.038l.569.023-.016.5-.015.508.546.046c.568.045 23.292.159 32.039.159h5.04v-.417c.007-.227.03-.462.06-.515.046-.061.266-.091.66-.091h.599l.31.583c.88 1.69 2.479 3.123 4.184 3.745 1.046.386 1.577.47 2.865.477 1.19.008 1.531-.046 2.502-.349 1.849-.583 3.463-1.993 4.479-3.91l.258-.486.97-.038c1.084-.038 1.19-.007 1.19.402 0 .235.008.25.25.212 1.774-.25 8.436-1.182 8.694-1.212.629-.084.924-.288 1.925-1.365.53-.568 1.023-1.16 1.107-1.326.166-.326.197-.917.068-1.258-.144-.372-.091-1.797.121-3.207.349-2.258.28-2.455-1.288-3.979-.948-.924-1.122-1.13-1.327-1.576-.121-.28-.242-.508-.258-.508-.007 0-.818-.205-1.796-.455l-1.774-.447V9.45l.008-.379h-.462c-.25 0-.69-.022-.97-.053l-.516-.045.015-.402c.015-.227.008-.424-.015-.44-.015-.022-.424.016-.902.076-.477.053-.902.106-.932.106-.038 0-.053-.25-.046-.553.008-.295-.007-.56-.038-.576-.03-.015-.386.03-.795.106l-.743.137-.902-.326c-1.69-.607-6.352-2.13-8.216-2.691C101.389 1.863 96.023.65 91.111.166c-1.136-.114-5.04-.213-5.798-.145zm6.064 2.35c1.622.152 3.35.402 3.471.5.053.053.091.16.068.243-.03.152-.447 1.5-1.462 4.722l-.432 1.38-.463.037c-.257.023-2.22.099-4.366.16-2.145.068-4.805.151-5.912.189-1.106.038-2.781.09-3.729.121l-1.72.053-.046-.295c-.227-1.387-.94-2.304-1.796-2.304-1.061 0-2.456.901-3.449 2.235-.371.5-.47.554-1.099.561-.462.008-.591-.075-.424-.273.136-.174 5.965-4.047 7.155-4.767 2-1.198 3.873-1.978 5.487-2.297 2.32-.44 5.723-.545 8.717-.265zm7.337 1.289c5.177 1.28 9.497 2.91 9.899 3.736.174.357.015.569-.561.75-.493.16-3.1.387-8.452.728-2.402.16-3.054.167-3.16.061-.068-.068-.038-.72.121-2.797.121-1.493.227-2.736.25-2.774.068-.114.53-.045 1.903.296zm-4.92 5.843c.175.205.455.652.63 1l.326.638-.008.879c0 .644-.045 1.053-.167 1.523-.477 1.85-1.72 4.434-2.781 5.799-1.486 1.902-3.373 3.137-5.42 3.554-.44.084-1.614.13-5.078.198a1638.9 1638.9 0 00-12.893.272c-1.364.038-2.031.03-2.061-.022-.06-.099-.569-6.61-.637-8.057-.046-1.16.038-1.857.318-2.676.448-1.28 1.903-3.138 2.214-2.835.022.03-.213.319-.516.645-.621.667-.962 1.19-1.273 1.963-.334.826-.417 1.28-.425 2.296 0 1.357.554 8.118.675 8.247.083.083.796.083 4.032.015 2.16-.046 6.443-.129 9.505-.19 6.162-.113 6.079-.106 7.443-.644.856-.333 1.978-1.053 2.759-1.774 1.053-.97 1.88-2.25 2.903-4.51.88-1.962 1.008-2.38 1.053-3.387.046-1.22-.19-1.963-.864-2.683-.182-.198-.333-.41-.333-.486 0-.234.288-.12.599.235zm-46.31 1.494c.068.083.008.204-.303.576-.932 1.106-2.721 2.47-4.184 3.183-1.319.637-2.827 1.069-2.971.841-.175-.295 1.538-1.917 3.16-2.986 1.13-.743 2.57-1.387 3.661-1.637.44-.099.538-.099.637.023zm80.941 1.417c.182.356.349.78.372.955l.038.303-1.152.046c-.637.03-2.183.053-3.434.053-2.069 0-2.334-.015-2.857-.16-.637-.166-1.857-.742-1.835-.864.008-.106.273-.143 4.033-.568a992.82 992.82 0 003.6-.402 3.31 3.31 0 01.568-.023l.341.008.326.652zm-72.823 2.698c1.144.28 2.615 1.1 3.38 1.88.773.796 1.44 2.107 1.668 3.274.303 1.607-.046 3.161-1.062 4.677-.917 1.38-1.819 2.07-3.342 2.592-.819.273-2.122.334-3.07.144-.97-.197-2.122-.652-2.638-1.046-1.197-.925-2.084-2.213-2.455-3.577-.538-1.963.075-4.503 1.462-5.98a6.907 6.907 0 014.048-2.123c.386-.053 1.493.03 2.009.16zm55.133-.015c1.099.288 1.917.735 2.751 1.508 2.342 2.176 2.805 5.473 1.16 8.24-.804 1.356-2.244 2.417-3.828 2.826-.674.175-1.834.288-2.349.235-2.479-.257-4.889-2.372-5.534-4.85-.485-1.865.099-4.306 1.395-5.852 1.478-1.766 4.237-2.668 6.405-2.107zm-72.922 2.804c.575.152.94.342 1.288.683.258.257.66.917.66 1.099 0 .045-.418.075-1.175.075H37.41v.448l-.842.022c-.462.016-.902 0-.97-.03-.083-.03-.151-.16-.182-.326a.834.834 0 00-.242-.455c-.326-.303-.243-.871.174-1.212.485-.387 1.615-.523 2.464-.303zm-.387 2.676c.045.046.083.28.09.523l.009.44-.85.022c-.962.023-.947.03-1.045-.621-.038-.273-.023-.387.053-.44.129-.09 1.644-.022 1.743.076zm-.015 1.304c0 .144-.228.636-.364.78-.167.182-.644.433-.834.433-.121 0-.166-.1-.265-.592-.06-.318-.099-.606-.076-.644.053-.083 1.539-.068 1.539.023z"/><path d="M53.108 15.553c-2.713.591-4.244 2.259-4.669 5.093-.136.91-.136 1.41-.007 2.145.318 1.736 1.349 3.047 3.039 3.866 1.114.538 1.85.712 2.918.705 3.07-.015 5.495-2.138 5.927-5.17.197-1.402-.371-3.334-1.341-4.57-1.296-1.645-3.767-2.524-5.867-2.069zm55.224-.038c-1.364.242-2.433.78-3.32 1.668-.545.538-.712.765-1.031 1.417-.523 1.038-.667 1.69-.667 2.979.008.97.023 1.06.251 1.675.826 2.175 2.319 3.54 4.35 3.979.758.159 2.229.159 2.865-.008 1.774-.455 3.078-1.447 3.782-2.857.478-.97.63-1.652.637-2.865.008-1.236-.114-1.789-.591-2.767-.735-1.516-1.903-2.501-3.6-3.07-.554-.189-2.032-.272-2.676-.151zM76.56 2.092c-1.304.598-2.267 1.06-5.648 2.72-1.023.5-2.705 1.327-3.751 1.835-1.79.88-3.343 1.614-3.745 1.789-.174.075-.166.083.213.25 1.068.455 3.388.765 4.138.546.129-.03 1.236-.728 2.463-1.54 2.903-1.917 5.336-3.47 6.898-4.403.69-.41 1.28-.773 1.319-.81.06-.061-.463-.979-.561-.979-.023 0-.614.266-1.327.592z"/></svg><svg viewBox="0 0 25 25" id="social_yomuxilajcsr_1" xmlns="http://www.w3.org/2000/svg"><g clip-path="url(#ga)"><path d="M11.27 17.61c-1.939-.203-3.686-.68-5.182-1.85-.186-.146-.377-.286-.547-.449-.655-.629-.72-1.349-.203-2.091.444-.636 1.188-.805 1.961-.44.15.07.293.158.43.253 2.788 1.916 6.618 1.969 9.417.086.277-.212.573-.386.917-.474.668-.172 1.29.074 1.65.658.409.667.403 1.319-.101 1.837-.774.794-1.705 1.37-2.739 1.77-.978.38-2.05.57-3.11.697.16.174.236.26.336.36 1.44 1.447 2.886 2.887 4.32 4.338.49.494.591 1.107.322 1.682-.294.628-.953 1.042-1.599.998-.41-.029-.728-.232-1.012-.518-1.086-1.093-2.193-2.166-3.257-3.28-.31-.324-.46-.263-.732.019A217.767 217.767 0 018.82 24.54c-.502.495-1.099.584-1.68.301-.62-.3-1.013-.931-.982-1.565.02-.43.232-.757.526-1.051 1.425-1.423 2.846-2.85 4.267-4.274.094-.095.181-.195.319-.342z"/><path d="M12.45 12.654c-3.457-.012-6.292-2.878-6.272-6.34C6.198 2.811 9.035-.01 12.526 0c3.499.01 6.307 2.872 6.29 6.41-.018 3.455-2.873 6.256-6.366 6.244zm3.143-6.333a3.082 3.082 0 00-3.092-3.09A3.086 3.086 0 009.402 6.36a3.082 3.082 0 003.115 3.065 3.075 3.075 0 003.075-3.103z"/></g><defs><clipPath id="ga"><path d="M0 0h25v25H0z"/></clipPath></defs></svg><svg viewBox="0 0 32 32" id="star_6uw3mlgd55bi_11" xmlns="http://www.w3.org/2000/svg"><g clip-path="url(#ha)"><path d="M29.64 12.843a1.001 1.001 0 00-.807-.68l-8.248-1.2-3.688-7.474a1.04 1.04 0 00-1.794 0l-3.688 7.474-8.248 1.2a.999.999 0 00-.555 1.704l5.969 5.819-1.41 8.213a1 1 0 001.452 1.054L16 25.075l7.377 3.878a1 1 0 001.451-1.054l-1.409-8.213 5.969-5.819a1 1 0 00.253-1.024zm-7.994 5.777a1.002 1.002 0 00-.287.885l1.155 6.735-6.049-3.18a.997.997 0 00-.93 0l-6.05 3.18 1.156-6.735a1 1 0 00-.287-.885l-4.895-4.77 6.764-.984a1 1 0 00.752-.547L16 6.191l3.025 6.128a.999.999 0 00.752.547l6.764.984-4.895 4.77z"/><path d="M29.388 13.867l-5.969 5.819 1.41 8.213a1 1 0 01-1.452 1.054L16 25.075l-7.377 3.878A1 1 0 017.172 27.9l1.409-8.213-5.969-5.819a1 1 0 01.555-1.705l8.248-1.2 3.688-7.473a1.041 1.041 0 011.794 0l3.688 7.474 8.248 1.2a.999.999 0 01.555 1.704z"/></g><defs><clipPath id="ha"><path d="M0 0h32v32H0z"/></clipPath></defs></svg></svg>