<svg width="35" height="35" viewBox="0 0 35 35" fill="none" xmlns="http://www.w3.org/2000/svg">
<path d="M31.4697 9.99671C31.6739 9.31858 31.4697 8.82129 30.5043 8.82129H27.3062C26.4924 8.82129 26.1205 9.2515 25.9164 9.724C25.9164 9.724 24.2903 13.6892 21.9862 16.2602C21.2424 17.0084 20.9026 17.2446 20.4972 17.2446C20.2945 17.2446 19.9999 17.0084 19.9999 16.3302V9.99671C19.9999 9.18296 19.7651 8.82129 19.087 8.82129H14.0616C13.5541 8.82129 13.2478 9.19754 13.2478 9.55629C13.2478 10.3263 14.3999 10.5042 14.518 12.6742V17.3817C14.518 18.4127 14.3328 18.6009 13.9245 18.6009C12.841 18.6009 10.2043 14.6211 8.63949 10.0652C8.3347 9.18004 8.02699 8.82275 7.21033 8.82275H4.01366C3.09928 8.82275 2.91699 9.25296 2.91699 9.72546C2.91699 10.5742 4.00053 14.7742 7.96428 20.329C10.6068 24.1221 14.327 26.1784 17.7162 26.1784C19.7476 26.1784 19.9985 25.7219 19.9985 24.9344V22.0673C19.9985 21.1544 20.1924 20.9707 20.8355 20.9707C21.308 20.9707 22.1218 21.2098 24.0191 23.0371C26.1862 25.2042 26.5449 26.1769 27.7626 26.1769H30.9593C31.8722 26.1769 32.3287 25.7205 32.0662 24.8192C31.7789 23.9223 30.7435 22.6171 29.3697 21.0727C28.623 20.1919 27.5074 19.244 27.1676 18.77C26.6937 18.159 26.8307 17.8892 27.1676 17.3467C27.1691 17.3482 31.0643 11.8619 31.4697 9.99671Z" fill="#4C75A3"/>
</svg>
