<svg width="166" height="64" viewBox="0 0 166 64" fill="none" xmlns="http://www.w3.org/2000/svg">
<path d="M2.688 55.24C2.416 55.24 2.2 55.16 2.04 55C1.88 54.824 1.8 54.584 1.8 54.28L1.8 44.896C1.8 42.72 2.408 41.024 3.624 39.808C4.856 38.576 6.56 37.96 8.736 37.96C10.896 37.96 12.592 38.576 13.824 39.808C15.056 41.04 15.672 42.736 15.672 44.896L15.672 54.28C15.672 54.584 15.592 54.824 15.432 55C15.272 55.16 15.048 55.24 14.76 55.24C14.488 55.24 14.264 55.16 14.088 55C13.928 54.824 13.848 54.584 13.848 54.28L13.848 48.88L3.6 48.88L3.6 54.28C3.6 54.584 3.52 54.824 3.36 55C3.2 55.16 2.976 55.24 2.688 55.24ZM13.848 47.392L13.848 44.824C13.848 43.112 13.408 41.8 12.528 40.888C11.648 39.96 10.384 39.496 8.736 39.496C7.072 39.496 5.8 39.952 4.92 40.864C4.04 41.776 3.6 43.096 3.6 44.824L3.6 47.392L13.848 47.392ZM24.0609 55.24C22.4929 55.24 21.2609 54.792 20.3649 53.896C19.4849 53 19.0449 51.752 19.0449 50.152L19.0449 43.96C19.0449 43.656 19.1249 43.424 19.2849 43.264C19.4449 43.088 19.6609 43 19.9329 43C20.2049 43 20.4129 43.088 20.5569 43.264C20.7169 43.424 20.7969 43.656 20.7969 43.96L20.7969 50.152C20.7969 51.288 21.1009 52.168 21.7089 52.792C22.3169 53.416 23.1649 53.728 24.2529 53.728C25.1169 53.728 25.8849 53.536 26.5569 53.152C27.2289 52.768 27.7489 52.232 28.1169 51.544C28.5009 50.856 28.6929 50.064 28.6929 49.168L28.6929 43.96C28.6929 43.656 28.7649 43.424 28.9089 43.264C29.0689 43.088 29.2929 43 29.5809 43C29.8529 43 30.0609 43.088 30.2049 43.264C30.3649 43.424 30.4449 43.656 30.4449 43.96L30.4449 54.28C30.4449 54.584 30.3649 54.824 30.2049 55C30.0609 55.16 29.8529 55.24 29.5809 55.24C29.2929 55.24 29.0689 55.152 28.9089 54.976C28.7649 54.8 28.6929 54.568 28.6929 54.28L28.6929 52.864C28.1009 53.632 27.4129 54.224 26.6289 54.64C25.8449 55.04 24.9889 55.24 24.0609 55.24ZM41.8288 52.624C42.0048 52.768 42.0928 52.936 42.0928 53.128C42.0928 53.288 42.0208 53.48 41.8768 53.704C41.5408 54.168 41.0768 54.544 40.4848 54.832C39.8928 55.104 39.2848 55.24 38.6608 55.24C37.6048 55.24 36.7728 54.928 36.1648 54.304C35.5568 53.68 35.2528 52.824 35.2528 51.736L35.2528 44.704L33.9568 44.704C33.3168 44.704 32.9968 44.456 32.9968 43.96C32.9968 43.736 33.0768 43.56 33.2368 43.432C33.4128 43.304 33.6528 43.24 33.9568 43.24L35.2528 43.24L35.2528 39.136C35.2528 38.832 35.3248 38.6 35.4688 38.44C35.6288 38.264 35.8528 38.176 36.1408 38.176C36.4128 38.176 36.6208 38.264 36.7648 38.44C36.9248 38.6 37.0048 38.832 37.0048 39.136L37.0048 43.24L40.2688 43.24C40.5568 43.24 40.7808 43.304 40.9408 43.432C41.1168 43.544 41.2048 43.72 41.2048 43.96C41.2048 44.456 40.8928 44.704 40.2688 44.704L37.0048 44.704L37.0048 51.88C37.0048 53.112 37.5808 53.728 38.7328 53.728C39.1008 53.728 39.4368 53.656 39.7408 53.512C40.0448 53.368 40.3488 53.136 40.6528 52.816C40.8928 52.56 41.1248 52.432 41.3488 52.432C41.4928 52.432 41.6528 52.496 41.8288 52.624ZM50.031 55.24C48.639 55.24 47.447 54.96 46.455 54.4C45.463 53.84 44.711 53.096 44.199 52.168C43.703 51.224 43.455 50.208 43.455 49.12C43.455 48.032 43.703 47.024 44.199 46.096C44.711 45.152 45.463 44.4 46.455 43.84C47.447 43.28 48.639 43 50.031 43C51.423 43 52.607 43.28 53.583 43.84C54.575 44.4 55.319 45.152 55.815 46.096C56.327 47.024 56.583 48.032 56.583 49.12C56.583 50.208 56.327 51.224 55.815 52.168C55.319 53.096 54.575 53.84 53.583 54.4C52.607 54.96 51.423 55.24 50.031 55.24ZM50.031 53.728C51.471 53.728 52.623 53.32 53.487 52.504C54.367 51.688 54.807 50.56 54.807 49.12C54.807 47.68 54.367 46.552 53.487 45.736C52.623 44.92 51.471 44.512 50.031 44.512C48.575 44.512 47.407 44.92 46.527 45.736C45.663 46.552 45.231 47.68 45.231 49.12C45.231 50.56 45.663 51.688 46.527 52.504C47.407 53.32 48.575 53.728 50.031 53.728ZM59.4803 41.2C59.4803 40.288 59.7443 39.56 60.2723 39.016C60.8163 38.472 61.6003 38.2 62.6243 38.2L67.1123 38.2C71.4643 38.2 73.6403 40.008 73.6403 43.624C73.6403 45.368 73.1123 46.688 72.0563 47.584C71.0003 48.48 69.4083 48.928 67.2803 48.928L71.9363 53.752C72.0803 53.896 72.1523 54.08 72.1523 54.304C72.1523 54.592 72.0323 54.824 71.7923 55C71.6003 55.144 71.4003 55.216 71.1923 55.216C70.8723 55.216 70.5683 55.056 70.2803 54.736L64.7603 48.928L61.5203 48.928L61.5203 54.208C61.5203 54.528 61.4243 54.784 61.2323 54.976C61.0563 55.152 60.8083 55.24 60.4883 55.24C60.1683 55.24 59.9203 55.152 59.7443 54.976C59.5683 54.784 59.4803 54.528 59.4803 54.208L59.4803 41.2ZM67.2323 47.272C68.7043 47.272 69.7923 47 70.4963 46.456C71.2163 45.896 71.5763 44.952 71.5763 43.624C71.5763 42.28 71.2163 41.32 70.4963 40.744C69.7763 40.152 68.6883 39.856 67.2323 39.856L62.7443 39.856C62.3763 39.856 62.0803 39.976 61.8563 40.216C61.6323 40.456 61.5203 40.784 61.5203 41.2L61.5203 47.272L67.2323 47.272ZM81.81 55.24C79.73 55.24 78.122 54.704 76.986 53.632C75.85 52.56 75.282 51.04 75.282 49.072C75.282 47.184 75.858 45.704 77.01 44.632C78.162 43.544 79.738 43 81.738 43C82.97 43 84.066 43.2 85.026 43.6C85.986 43.984 86.73 44.536 87.258 45.256C87.802 45.96 88.074 46.768 88.074 47.68C88.074 48.352 87.882 48.872 87.498 49.24C87.13 49.608 86.618 49.792 85.962 49.792L77.082 49.792C77.082 51.024 77.498 51.992 78.33 52.696C79.162 53.384 80.322 53.728 81.81 53.728C82.722 53.728 83.506 53.632 84.162 53.44C84.818 53.232 85.434 52.904 86.01 52.456C86.314 52.2 86.562 52.072 86.754 52.072C86.898 52.072 87.034 52.136 87.162 52.264C87.386 52.456 87.498 52.656 87.498 52.864C87.498 53.024 87.402 53.2 87.21 53.392C86.554 54.016 85.786 54.48 84.906 54.784C84.026 55.088 82.994 55.24 81.81 55.24ZM85.434 48.376C85.722 48.376 85.938 48.32 86.082 48.208C86.226 48.08 86.298 47.856 86.298 47.536C86.298 46.96 86.106 46.44 85.722 45.976C85.338 45.512 84.794 45.152 84.09 44.896C83.402 44.64 82.618 44.512 81.738 44.512C80.314 44.512 79.186 44.864 78.354 45.568C77.538 46.256 77.13 47.192 77.13 48.376L85.434 48.376ZM91.6774 55.24C91.4054 55.24 91.1894 55.16 91.0294 55C90.8854 54.824 90.8134 54.584 90.8134 54.28L90.8134 43.96C90.8134 43.656 90.8854 43.424 91.0294 43.264C91.1734 43.088 91.3894 43 91.6774 43C91.9494 43 92.1574 43.088 92.3014 43.264C92.4614 43.424 92.5414 43.656 92.5414 43.96L92.5414 45.376C93.1334 44.592 93.8454 44 94.6774 43.6C95.5254 43.2 96.4534 43 97.4614 43C98.9814 43 100.149 43.424 100.965 44.272C101.797 45.12 102.213 46.336 102.213 47.92L102.213 54.28C102.213 54.584 102.133 54.824 101.973 55C101.813 55.16 101.597 55.24 101.325 55.24C101.037 55.24 100.821 55.16 100.677 55C100.533 54.824 100.461 54.584 100.461 54.28L100.461 47.92C100.461 45.648 99.3894 44.512 97.2454 44.512C95.8374 44.512 94.7014 44.928 93.8374 45.76C92.9894 46.592 92.5654 47.696 92.5654 49.072L92.5654 54.28C92.5654 54.568 92.4854 54.8 92.3254 54.976C92.1814 55.152 91.9654 55.24 91.6774 55.24ZM113.477 52.624C113.653 52.768 113.741 52.936 113.741 53.128C113.741 53.288 113.669 53.48 113.525 53.704C113.189 54.168 112.725 54.544 112.133 54.832C111.541 55.104 110.933 55.24 110.309 55.24C109.253 55.24 108.421 54.928 107.813 54.304C107.205 53.68 106.901 52.824 106.901 51.736L106.901 44.704L105.605 44.704C104.965 44.704 104.645 44.456 104.645 43.96C104.645 43.736 104.725 43.56 104.885 43.432C105.061 43.304 105.301 43.24 105.605 43.24L106.901 43.24L106.901 39.136C106.901 38.832 106.973 38.6 107.117 38.44C107.277 38.264 107.501 38.176 107.789 38.176C108.061 38.176 108.269 38.264 108.413 38.44C108.573 38.6 108.653 38.832 108.653 39.136L108.653 43.24L111.917 43.24C112.205 43.24 112.429 43.304 112.589 43.432C112.765 43.544 112.853 43.72 112.853 43.96C112.853 44.456 112.541 44.704 111.917 44.704L108.653 44.704L108.653 51.88C108.653 53.112 109.229 53.728 110.381 53.728C110.749 53.728 111.085 53.656 111.389 53.512C111.693 53.368 111.997 53.136 112.301 52.816C112.541 52.56 112.773 52.432 112.997 52.432C113.141 52.432 113.301 52.496 113.477 52.624ZM117.417 55.24C117.145 55.24 116.929 55.16 116.769 55C116.609 54.824 116.529 54.584 116.529 54.28L116.529 38.92C116.529 38.616 116.609 38.384 116.769 38.224C116.929 38.048 117.145 37.96 117.417 37.96C117.705 37.96 117.929 38.048 118.089 38.224C118.249 38.384 118.329 38.616 118.329 38.92L118.329 45.616L128.865 45.616L128.865 38.92C128.865 38.616 128.945 38.384 129.105 38.224C129.265 38.048 129.489 37.96 129.777 37.96C130.049 37.96 130.265 38.048 130.425 38.224C130.585 38.384 130.665 38.616 130.665 38.92L130.665 54.28C130.665 54.584 130.585 54.824 130.425 55C130.265 55.16 130.049 55.24 129.777 55.24C129.505 55.24 129.281 55.16 129.105 55C128.945 54.824 128.865 54.584 128.865 54.28L128.865 47.128L118.329 47.128L118.329 54.28C118.329 54.584 118.249 54.824 118.089 55C117.929 55.16 117.705 55.24 117.417 55.24ZM139.163 55.24C137.595 55.24 136.363 54.792 135.467 53.896C134.587 53 134.147 51.752 134.147 50.152L134.147 43.96C134.147 43.656 134.227 43.424 134.387 43.264C134.547 43.088 134.763 43 135.035 43C135.307 43 135.515 43.088 135.659 43.264C135.819 43.424 135.899 43.656 135.899 43.96L135.899 50.152C135.899 51.288 136.203 52.168 136.811 52.792C137.419 53.416 138.267 53.728 139.355 53.728C140.219 53.728 140.987 53.536 141.659 53.152C142.331 52.768 142.851 52.232 143.219 51.544C143.603 50.856 143.795 50.064 143.795 49.168L143.795 43.96C143.795 43.656 143.867 43.424 144.011 43.264C144.171 43.088 144.395 43 144.682 43C144.955 43 145.163 43.088 145.307 43.264C145.467 43.424 145.547 43.656 145.547 43.96L145.547 54.28C145.547 54.584 145.467 54.824 145.307 55C145.163 55.16 144.955 55.24 144.682 55.24C144.395 55.24 144.171 55.152 144.011 54.976C143.867 54.8 143.795 54.568 143.795 54.28L143.795 52.864C143.203 53.632 142.515 54.224 141.731 54.64C140.947 55.04 140.091 55.24 139.163 55.24ZM149.754 55.24C149.482 55.24 149.266 55.16 149.106 55C148.962 54.824 148.89 54.584 148.89 54.28L148.89 37.744C148.89 37.44 148.962 37.208 149.106 37.048C149.266 36.872 149.482 36.784 149.754 36.784C150.026 36.784 150.242 36.872 150.402 37.048C150.562 37.208 150.642 37.44 150.642 37.744L150.666 45.448C152.01 43.816 153.73 43 155.826 43C157.122 43 158.25 43.248 159.21 43.744C160.17 44.24 160.906 44.952 161.418 45.88C161.946 46.792 162.21 47.872 162.21 49.12C162.21 51.072 161.65 52.584 160.53 53.656C159.41 54.712 157.834 55.24 155.802 55.24C153.546 55.24 151.826 54.408 150.642 52.744L150.642 54.28C150.642 54.568 150.562 54.8 150.402 54.976C150.258 55.152 150.042 55.24 149.754 55.24ZM155.682 53.728C157.25 53.728 158.434 53.344 159.234 52.576C160.034 51.792 160.434 50.64 160.434 49.12C160.434 47.68 160.01 46.552 159.162 45.736C158.314 44.92 157.154 44.512 155.682 44.512C154.722 44.512 153.858 44.712 153.09 45.112C152.322 45.496 151.722 46.04 151.29 46.744C150.858 47.448 150.642 48.24 150.642 49.12C150.642 50.544 151.09 51.672 151.986 52.504C152.882 53.32 154.114 53.728 155.682 53.728Z" fill="#2670FF"/>
<path d="M85.3132 0.0222473C82.4709 0.264791 81.1293 0.499756 79.1131 1.09096L78.1809 1.36382L78.6735 1.86407C78.9464 2.14451 79.1738 2.40221 79.1738 2.44011C79.1738 2.48558 78.484 2.91761 77.6351 3.41786C73.3073 5.95699 69.6388 8.34453 68.5928 9.29955C68.282 9.57999 68.2669 9.58757 67.471 9.64062C65.7505 9.7619 64.0982 9.4284 63.1356 8.76898L62.8021 8.53402L61.9077 8.61739C56.7612 9.11006 50.7658 9.97412 48.5223 10.5426C47.9387 10.6942 47.2869 10.8154 47.0746 10.8154C45.8089 10.8154 43.8609 11.6871 42.3071 12.9453C41.7462 13.4001 41.5568 13.5062 41.0262 13.6653C40.0257 13.9609 39.4042 14.2111 38.3961 14.734C37.1682 15.3631 36.1905 16.0605 35.2734 16.9624L34.5306 17.6976L34.5306 18.0993C34.5306 18.6147 34.667 20.7901 34.7579 21.7223L34.8262 22.4272L34.4093 23.0184L34 23.6096L34.432 23.8143C36.5846 24.8148 40.579 25.5727 44.4521 25.7167L45.8164 25.7698L45.8392 25.0573L45.8619 24.3524L46.1802 24.2918C46.7487 24.2008 46.8851 24.2842 47.2262 24.9588C47.6431 25.7925 47.9538 26.217 48.6587 26.9446C49.9397 28.2634 51.2888 28.9759 53.1155 29.2791C55.4954 29.6732 57.8754 28.9456 59.7324 27.2478C60.3236 26.7096 61.0815 25.6864 61.415 24.9891C61.5666 24.6783 61.7258 24.3979 61.7713 24.36C61.8167 24.3297 62.1123 24.3145 62.4231 24.3221L62.9916 24.3448L62.9764 24.8451L62.9612 25.3529L63.507 25.3984C64.0754 25.4439 86.7988 25.5576 95.5455 25.5576L100.586 25.5576L100.586 25.1407C100.593 24.9133 100.616 24.6783 100.646 24.6253C100.692 24.5646 100.912 24.5343 101.306 24.5343L101.905 24.5343L102.215 25.118C103.095 26.8082 104.694 28.2407 106.399 28.8622C107.445 29.2488 107.976 29.3321 109.264 29.3397C110.454 29.3473 110.795 29.2943 111.766 28.9911C113.615 28.4075 115.229 26.9977 116.245 25.0801L116.503 24.595L117.473 24.5571C118.557 24.5192 118.663 24.5495 118.663 24.9588C118.663 25.1937 118.671 25.2089 118.913 25.171C120.687 24.9209 127.349 23.9886 127.607 23.9583C128.236 23.8749 128.531 23.6703 129.532 22.594C130.062 22.0255 130.555 21.4343 130.639 21.2676C130.805 20.9417 130.836 20.3504 130.707 20.0094C130.563 19.638 130.616 18.213 130.828 16.8032C131.177 14.5446 131.108 14.3475 129.54 12.824C128.592 11.8993 128.418 11.6947 128.213 11.2475C128.092 10.967 127.971 10.7397 127.955 10.7397C127.948 10.7397 127.137 10.535 126.159 10.2849L124.385 9.83769L124.385 9.45114L124.393 9.07216L123.931 9.07216C123.681 9.07216 123.241 9.04942 122.961 9.01911L122.445 8.97363L122.46 8.57192C122.475 8.34453 122.468 8.14746 122.445 8.13231C122.43 8.10957 122.021 8.14746 121.543 8.2081C121.066 8.26116 120.641 8.31421 120.611 8.31421C120.573 8.31421 120.558 8.06409 120.565 7.76091C120.573 7.46531 120.558 7.20003 120.527 7.18487C120.497 7.16971 120.141 7.21519 119.732 7.29098L118.989 7.42741L118.087 7.10149C116.397 6.49513 111.735 4.97166 109.871 4.41077C101.389 1.86407 96.023 0.651346 91.1115 0.166258C89.9746 0.0525646 86.0711 -0.0459672 85.3132 0.0222473ZM91.3768 2.37189C92.9988 2.52348 94.7269 2.7736 94.8482 2.87214C94.9012 2.92519 94.9391 3.03131 94.9164 3.11468C94.8861 3.26627 94.4692 4.61542 93.4535 7.8367L93.0215 9.21617L92.5592 9.25407C92.3015 9.27681 90.3384 9.3526 88.1934 9.41324C86.0484 9.48145 83.388 9.56483 82.2814 9.60273C81.1748 9.64062 79.4997 9.69368 78.5523 9.724L76.8317 9.77706L76.7862 9.48145C76.5589 8.09441 75.8464 7.17729 74.9899 7.17729C73.9288 7.17729 72.5341 8.07925 71.5412 9.41324C71.1698 9.91349 71.0713 9.96654 70.4422 9.97412C69.9799 9.9817 69.851 9.89833 70.0178 9.70126C70.1542 9.52693 75.9828 5.65381 77.1728 4.93376C79.1738 3.7362 81.0459 2.95551 82.6603 2.63717C84.9797 2.19756 88.3829 2.09145 91.3768 2.37189ZM98.7137 3.6604C103.891 4.94134 108.211 6.57093 108.613 7.39709C108.787 7.75333 108.628 7.96556 108.052 8.14746C107.559 8.30663 104.952 8.53402 99.6005 8.8751C97.1978 9.03427 96.546 9.04185 96.4399 8.93573C96.3717 8.86752 96.402 8.21568 96.5611 6.1389C96.6824 4.64574 96.7885 3.4027 96.8113 3.3648C96.8795 3.25111 97.3418 3.31933 98.7137 3.6604ZM93.7946 9.50419C93.969 9.70884 94.2494 10.156 94.4237 10.5047L94.7496 11.1414L94.7421 12.0206C94.7421 12.6648 94.6966 13.0741 94.5753 13.5441C94.0978 15.3935 92.8548 17.9781 91.7936 19.3424C90.3081 21.2448 88.4208 22.4803 86.3743 22.8972C85.9347 22.9805 84.7599 23.026 81.296 23.0942C76.9378 23.17 72.5948 23.261 68.4033 23.3671C67.039 23.405 66.372 23.3974 66.3417 23.3443C66.2811 23.2458 65.7732 16.735 65.705 15.2873C65.6595 14.1277 65.7429 13.4304 66.0234 12.6118C66.4706 11.3309 67.9258 9.47388 68.2366 9.77706C68.2593 9.80737 68.0243 10.0954 67.7212 10.4213C67.0996 11.0883 66.7586 11.6113 66.4478 12.3844C66.1143 13.2106 66.0309 13.6653 66.0234 14.681C66.0234 16.0377 66.5767 22.7986 66.6979 22.9275C66.7813 23.0109 67.4938 23.0109 70.7302 22.9426C72.8904 22.8972 77.1728 22.8138 80.2349 22.7531C86.397 22.6395 86.3137 22.647 87.678 22.1089C88.5345 21.7754 89.6562 21.0553 90.4369 20.3353C91.4905 19.3651 92.3166 18.0842 93.3399 15.8255C94.2191 13.8624 94.3479 13.4455 94.3934 12.4375C94.4389 11.2172 94.2039 10.4744 93.5293 9.75432C93.3474 9.55725 93.1958 9.34502 93.1958 9.26923C93.1958 9.03427 93.4839 9.14796 93.7946 9.50419ZM47.4839 10.9974C47.5521 11.0807 47.4915 11.202 47.1807 11.5734C46.2485 12.68 44.4597 14.0443 42.9969 14.7568C41.678 15.3935 40.1697 15.8255 40.0257 15.5981C39.8514 15.3025 41.5643 13.6805 43.1863 12.6118C44.3157 11.869 45.7558 11.2247 46.8472 10.9746C47.2869 10.8761 47.3854 10.8761 47.4839 10.9974ZM128.425 12.4147C128.607 12.771 128.774 13.1954 128.797 13.3697L128.835 13.6729L127.683 13.7184C127.046 13.7487 125.5 13.7714 124.249 13.7714C122.18 13.7714 121.915 13.7563 121.392 13.6123C120.755 13.4455 119.535 12.8695 119.557 12.7482C119.565 12.6421 119.83 12.6042 123.59 12.1798C125.447 11.9751 127.069 11.7932 127.19 11.778C127.319 11.7553 127.569 11.7477 127.758 11.7553L128.099 11.7629L128.425 12.4147ZM55.6016 15.113C56.7461 15.3935 58.2165 16.212 58.982 16.9927C59.7551 17.7886 60.4221 19.0998 60.6495 20.2671C60.9527 21.8739 60.604 23.4277 59.5884 24.9436C58.6713 26.3231 57.7693 27.0128 56.2458 27.5358C55.4272 27.8087 54.1236 27.8693 53.1761 27.6798C52.2059 27.4828 51.0539 27.028 50.5385 26.6338C49.3409 25.7092 48.4541 24.4206 48.0827 23.0563C47.5446 21.0932 48.1585 18.5541 49.5455 17.0761C50.6218 15.924 52.0468 15.1812 53.593 14.9539C53.9795 14.9008 55.0862 14.9842 55.6016 15.113ZM110.735 15.0979C111.834 15.3859 112.652 15.8331 113.486 16.6062C115.828 18.7815 116.291 22.0786 114.646 24.8451C113.842 26.2018 112.402 27.2629 110.818 27.6722C110.144 27.8466 108.984 27.9603 108.469 27.9072C105.99 27.6495 103.58 25.5348 102.935 23.0563C102.45 21.1918 103.034 18.7512 104.33 17.205C105.808 15.4389 108.567 14.537 110.735 15.0979ZM37.8125 17.9023C38.3885 18.0539 38.7523 18.2434 39.101 18.5844C39.3587 18.8421 39.7604 19.5015 39.7604 19.6835C39.7604 19.7289 39.3435 19.7592 38.5856 19.7592L37.4108 19.7592L37.4108 19.9791L37.4108 20.2064L36.5694 20.2292C36.1071 20.2443 35.6675 20.2292 35.5993 20.1989C35.5159 20.1685 35.4477 20.0397 35.4174 19.8729C35.3946 19.7138 35.2885 19.5167 35.1748 19.4182C34.8489 19.115 34.9323 18.5465 35.3491 18.2055C35.8342 17.8189 36.9636 17.6825 37.8125 17.9023ZM37.4259 20.5778C37.4714 20.6233 37.5093 20.8583 37.5169 21.1008L37.5245 21.5404L36.6756 21.5632C35.713 21.5859 35.7281 21.5935 35.6296 20.9417C35.5917 20.6688 35.6069 20.5551 35.6826 20.502C35.8115 20.4111 37.3274 20.4793 37.4259 20.5778ZM37.4108 21.8815C37.4108 22.0255 37.1834 22.5182 37.047 22.6622C36.8802 22.8441 36.4027 23.0942 36.2132 23.0942C36.0919 23.0942 36.0465 22.9957 35.9479 22.503C35.8873 22.1847 35.8494 21.8967 35.8721 21.8588C35.9252 21.7754 37.4108 21.7906 37.4108 21.8815Z" fill="#C0C0C0"/>
<path d="M53.1082 15.5522C50.3947 16.1434 48.8637 17.8109 48.4392 20.6457C48.3028 21.5552 48.3028 22.0554 48.4316 22.7907C48.75 24.5264 49.7808 25.8376 51.471 26.6562C52.5852 27.1943 53.3204 27.3687 54.3891 27.3611C57.4588 27.3459 59.8843 25.2237 60.3163 22.1919C60.5134 20.7897 59.9449 18.8569 58.9747 17.6214C57.6786 15.9767 55.2077 15.0975 53.1082 15.5522Z" fill="#C0C0C0"/>
<path d="M108.332 15.5142C106.968 15.7568 105.899 16.2949 105.012 17.1817C104.467 17.7199 104.3 17.9473 103.981 18.5991C103.458 19.6375 103.314 20.2893 103.314 21.5778C103.322 22.548 103.337 22.639 103.565 23.2529C104.391 25.4282 105.884 26.7925 107.915 27.2321C108.673 27.3913 110.144 27.3913 110.78 27.2246C112.554 26.7698 113.858 25.7769 114.562 24.3671C115.04 23.3969 115.192 22.7148 115.199 21.502C115.207 20.2666 115.085 19.7133 114.608 18.7355C113.873 17.2196 112.705 16.2343 111.008 15.6658C110.454 15.4763 108.976 15.393 108.332 15.5142Z" fill="#C0C0C0"/>
<path d="M76.5592 2.09164C75.2556 2.69042 74.293 3.15276 70.9125 4.81267C69.8893 5.31292 68.2066 6.13908 67.1607 6.64691C65.3719 7.52613 63.8181 8.26134 63.4164 8.43567C63.2421 8.51147 63.2496 8.51905 63.6286 8.68579C64.6973 9.14056 67.0167 9.45132 67.767 9.23152C67.8959 9.2012 69.0025 8.50389 70.2304 7.69288C73.1333 5.77527 75.5663 4.22147 77.1277 3.2892C77.8174 2.8799 78.4086 2.51609 78.4465 2.47819C78.5072 2.41755 77.9842 1.50043 77.8856 1.50043C77.8629 1.50043 77.2717 1.76572 76.5592 2.09164Z" fill="#C0C0C0"/>
</svg>
