<svg width="31" height="31" viewBox="0 0 31 31" fill="none" xmlns="http://www.w3.org/2000/svg">
<g clip-path="url(#clip0_76_186)">
<path d="M9.2624 16.0784C9.13749 15.195 9.15311 14.291 9.31308 13.4085C9.61666 11.7336 10.4148 10.2106 11.6214 9.004C13.1953 7.43008 15.2906 6.56336 17.5211 6.56336C18.7804 6.56336 19.9965 6.83975 21.1 7.3636C20.6301 6.09369 19.407 5.18604 17.9758 5.18604H3.33008C1.49387 5.18604 0 6.67991 0 8.51611V12.7483C0 14.5845 1.49387 16.0784 3.33008 16.0784H9.2624V16.0784Z" fill="#2670FF"/>
<path d="M28.8708 3.75004C27.4976 2.37684 25.672 1.62061 23.73 1.62061C21.9319 1.62061 20.2337 2.26943 18.9019 3.45554C19.6064 3.58584 20.27 3.86193 20.8537 4.25651C21.7089 3.72346 22.6972 3.43701 23.7301 3.43701C25.1869 3.43701 26.5564 4.00434 27.5865 5.03442C28.6166 6.06444 29.1839 7.43401 29.1839 8.89083C29.1839 10.3476 28.6166 11.7172 27.5865 12.7472C26.5563 13.7773 25.1867 14.3447 23.73 14.3447C22.2732 14.3447 20.9037 13.7774 19.8736 12.7472C19.519 12.3925 18.9439 12.3926 18.5893 12.7472C18.2346 13.1019 18.2346 13.6769 18.5893 14.0316C19.9624 15.4048 21.7881 16.1611 23.73 16.1611C25.672 16.1611 27.4977 15.4048 28.8708 14.0316C30.244 12.6585 31.0003 10.8328 31.0003 8.89083C31.0003 6.94891 30.244 5.12312 28.8708 3.75004Z" fill="#2670FF"/>
<path d="M16.5063 13.3894C16.5063 12.6615 16.7898 11.9773 17.3045 11.4627C17.819 10.9482 18.5032 10.6648 19.231 10.6648C19.9588 10.6648 20.6431 10.9482 21.1577 11.463C21.8132 12.1185 22.6752 12.4921 23.597 12.5249C23.2794 11.7098 22.7933 10.9457 22.1362 10.2885C19.5913 7.74367 15.4506 7.74367 12.9057 10.2885C11.9619 11.2324 11.3375 12.4233 11.1002 13.7325C10.9065 14.8016 10.9797 15.8887 11.3105 16.9111L3.9577 24.2639C3.82692 24.3947 3.73919 24.5623 3.70625 24.7443L3.06046 28.3095C3.00736 28.6026 3.10139 28.903 3.31203 29.1136C3.48386 29.2854 3.71551 29.3796 3.95407 29.3796C4.00795 29.3796 4.0622 29.3748 4.11615 29.365L7.68067 28.7184C7.96294 28.6673 8.2044 28.4857 8.33203 28.2288L9.11859 26.645L10.1521 26.3266C10.4394 26.2381 10.6642 26.0133 10.7527 25.726L11.0444 24.779L11.9914 24.4873C12.2787 24.3988 12.5035 24.174 12.592 23.8867L12.8837 22.9397L13.8307 22.648C13.9722 22.6044 14.1008 22.5269 14.2055 22.4222L15.5136 21.1142C16.5359 21.4449 17.6232 21.5183 18.692 21.3245C20.0012 21.0871 21.1922 20.4628 22.1361 19.519C22.6058 19.0492 22.9883 18.525 23.2846 17.9666C21.0245 17.8584 18.9152 16.9269 17.3042 15.3159C16.7898 14.8013 16.5063 14.1171 16.5063 13.3894Z" fill="#2670FF"/>
</g>
<defs>
<clipPath id="clip0_76_186">
<rect width="31" height="31" fill="white"/>
</clipPath>
</defs>
</svg>
