<svg width="166" height="64" viewBox="0 0 166 64" fill="none" xmlns="http://www.w3.org/2000/svg">
<path d="M2.688 55.2402C2.416 55.2402 2.2 55.1602 2.04 55.0002C1.88 54.8242 1.8 54.5842 1.8 54.2802L1.8 44.8962C1.8 42.7202 2.408 41.0242 3.624 39.8082C4.856 38.5762 6.56 37.9602 8.736 37.9602C10.896 37.9602 12.592 38.5762 13.824 39.8082C15.056 41.0402 15.672 42.7362 15.672 44.8962L15.672 54.2802C15.672 54.5842 15.592 54.8242 15.432 55.0002C15.272 55.1602 15.048 55.2402 14.76 55.2402C14.488 55.2402 14.264 55.1602 14.088 55.0002C13.928 54.8242 13.848 54.5842 13.848 54.2802L13.848 48.8802L3.6 48.8802L3.6 54.2802C3.6 54.5842 3.52 54.8242 3.36 55.0002C3.2 55.1602 2.976 55.2402 2.688 55.2402ZM13.848 47.3922L13.848 44.8242C13.848 43.1122 13.408 41.8002 12.528 40.8882C11.648 39.9602 10.384 39.4962 8.736 39.4962C7.072 39.4962 5.8 39.9522 4.92 40.8642C4.04 41.7762 3.6 43.0962 3.6 44.8242L3.6 47.3922L13.848 47.3922ZM24.0609 55.2402C22.4929 55.2402 21.2609 54.7922 20.3649 53.8962C19.4849 53.0002 19.0449 51.7522 19.0449 50.1522L19.0449 43.9602C19.0449 43.6562 19.1249 43.4242 19.2849 43.2642C19.4449 43.0882 19.6609 43.0002 19.9329 43.0002C20.2049 43.0002 20.4129 43.0882 20.5569 43.2642C20.7169 43.4242 20.7969 43.6562 20.7969 43.9602L20.7969 50.1522C20.7969 51.2882 21.1009 52.1682 21.7089 52.7922C22.3169 53.4162 23.1649 53.7282 24.2529 53.7282C25.1169 53.7282 25.8849 53.5362 26.5569 53.1522C27.2289 52.7682 27.7489 52.2322 28.1169 51.5442C28.5009 50.8562 28.6929 50.0642 28.6929 49.1682L28.6929 43.9602C28.6929 43.6562 28.7649 43.4242 28.9089 43.2642C29.0689 43.0882 29.2929 43.0002 29.5809 43.0002C29.8529 43.0002 30.0609 43.0882 30.2049 43.2642C30.3649 43.4242 30.4449 43.6562 30.4449 43.9602L30.4449 54.2802C30.4449 54.5842 30.3649 54.8242 30.2049 55.0002C30.0609 55.1602 29.8529 55.2402 29.5809 55.2402C29.2929 55.2402 29.0689 55.1522 28.9089 54.9762C28.7649 54.8002 28.6929 54.5682 28.6929 54.2802L28.6929 52.8642C28.1009 53.6322 27.4129 54.2242 26.6289 54.6402C25.8449 55.0402 24.9889 55.2402 24.0609 55.2402ZM41.8288 52.6242C42.0048 52.7682 42.0928 52.9362 42.0928 53.1282C42.0928 53.2882 42.0208 53.4802 41.8768 53.7042C41.5408 54.1682 41.0768 54.5442 40.4848 54.8322C39.8928 55.1042 39.2848 55.2402 38.6608 55.2402C37.6048 55.2402 36.7728 54.9282 36.1648 54.3042C35.5568 53.6802 35.2528 52.8242 35.2528 51.7362L35.2528 44.7042L33.9568 44.7042C33.3168 44.7042 32.9968 44.4562 32.9968 43.9602C32.9968 43.7362 33.0768 43.5602 33.2368 43.4322C33.4128 43.3042 33.6528 43.2402 33.9568 43.2402L35.2528 43.2402L35.2528 39.1362C35.2528 38.8322 35.3248 38.6002 35.4688 38.4402C35.6288 38.2642 35.8528 38.1762 36.1408 38.1762C36.4128 38.1762 36.6208 38.2642 36.7648 38.4402C36.9248 38.6002 37.0048 38.8322 37.0048 39.1362L37.0048 43.2402L40.2688 43.2402C40.5568 43.2402 40.7808 43.3042 40.9408 43.4322C41.1168 43.5442 41.2048 43.7202 41.2048 43.9602C41.2048 44.4562 40.8928 44.7042 40.2688 44.7042L37.0048 44.7042L37.0048 51.8802C37.0048 53.1122 37.5808 53.7282 38.7328 53.7282C39.1008 53.7282 39.4368 53.6562 39.7408 53.5122C40.0448 53.3682 40.3488 53.1362 40.6528 52.8162C40.8928 52.5602 41.1248 52.4322 41.3488 52.4322C41.4928 52.4322 41.6528 52.4962 41.8288 52.6242ZM50.031 55.2402C48.639 55.2402 47.447 54.9602 46.455 54.4002C45.463 53.8402 44.711 53.0962 44.199 52.1682C43.703 51.2242 43.455 50.2082 43.455 49.1202C43.455 48.0322 43.703 47.0242 44.199 46.0962C44.711 45.1522 45.463 44.4002 46.455 43.8402C47.447 43.2802 48.639 43.0002 50.031 43.0002C51.423 43.0002 52.607 43.2802 53.583 43.8402C54.575 44.4002 55.319 45.1522 55.815 46.0962C56.327 47.0242 56.583 48.0322 56.583 49.1202C56.583 50.2082 56.327 51.2242 55.815 52.1682C55.319 53.0962 54.575 53.8402 53.583 54.4002C52.607 54.9602 51.423 55.2402 50.031 55.2402ZM50.031 53.7282C51.471 53.7282 52.623 53.3202 53.487 52.5042C54.367 51.6882 54.807 50.5602 54.807 49.1202C54.807 47.6802 54.367 46.5522 53.487 45.7362C52.623 44.9202 51.471 44.5122 50.031 44.5122C48.575 44.5122 47.407 44.9202 46.527 45.7362C45.663 46.5522 45.231 47.6802 45.231 49.1202C45.231 50.5602 45.663 51.6882 46.527 52.5042C47.407 53.3202 48.575 53.7282 50.031 53.7282ZM59.4803 41.2002C59.4803 40.2882 59.7443 39.5602 60.2723 39.0162C60.8163 38.4722 61.6003 38.2002 62.6243 38.2002L67.1123 38.2002C71.4643 38.2002 73.6403 40.0082 73.6403 43.6242C73.6403 45.3682 73.1123 46.6882 72.0563 47.5842C71.0003 48.4802 69.4083 48.9282 67.2803 48.9282L71.9363 53.7522C72.0803 53.8962 72.1523 54.0802 72.1523 54.3042C72.1523 54.5922 72.0323 54.8242 71.7923 55.0002C71.6003 55.1442 71.4003 55.2162 71.1923 55.2162C70.8723 55.2162 70.5683 55.0562 70.2803 54.7362L64.7603 48.9282L61.5203 48.9282L61.5203 54.2082C61.5203 54.5282 61.4243 54.7842 61.2323 54.9762C61.0563 55.1522 60.8083 55.2402 60.4883 55.2402C60.1683 55.2402 59.9203 55.1522 59.7443 54.9762C59.5683 54.7842 59.4803 54.5282 59.4803 54.2082L59.4803 41.2002ZM67.2323 47.2722C68.7043 47.2722 69.7923 47.0002 70.4963 46.4562C71.2163 45.8962 71.5763 44.9522 71.5763 43.6242C71.5763 42.2802 71.2163 41.3202 70.4963 40.7442C69.7763 40.1522 68.6883 39.8562 67.2323 39.8562L62.7443 39.8562C62.3763 39.8562 62.0803 39.9762 61.8563 40.2162C61.6323 40.4562 61.5203 40.7842 61.5203 41.2002L61.5203 47.2722L67.2323 47.2722ZM81.81 55.2402C79.73 55.2402 78.122 54.7042 76.986 53.6322C75.85 52.5602 75.282 51.0402 75.282 49.0722C75.282 47.1842 75.858 45.7042 77.01 44.6322C78.162 43.5442 79.738 43.0002 81.738 43.0002C82.97 43.0002 84.066 43.2002 85.026 43.6002C85.986 43.9842 86.73 44.5362 87.258 45.2562C87.802 45.9602 88.074 46.7682 88.074 47.6802C88.074 48.3522 87.882 48.8722 87.498 49.2402C87.13 49.6082 86.618 49.7922 85.962 49.7922L77.082 49.7922C77.082 51.0242 77.498 51.9922 78.33 52.6962C79.162 53.3842 80.322 53.7282 81.81 53.7282C82.722 53.7282 83.506 53.6322 84.162 53.4402C84.818 53.2322 85.434 52.9042 86.01 52.4562C86.314 52.2002 86.562 52.0722 86.754 52.0722C86.898 52.0722 87.034 52.1362 87.162 52.2642C87.386 52.4562 87.498 52.6562 87.498 52.8642C87.498 53.0242 87.402 53.2002 87.21 53.3922C86.554 54.0162 85.786 54.4802 84.906 54.7842C84.026 55.0882 82.994 55.2402 81.81 55.2402ZM85.434 48.3762C85.722 48.3762 85.938 48.3202 86.082 48.2082C86.226 48.0802 86.298 47.8562 86.298 47.5362C86.298 46.9602 86.106 46.4402 85.722 45.9762C85.338 45.5122 84.794 45.1522 84.09 44.8962C83.402 44.6402 82.618 44.5122 81.738 44.5122C80.314 44.5122 79.186 44.8642 78.354 45.5682C77.538 46.2562 77.13 47.1922 77.13 48.3762L85.434 48.3762ZM91.6774 55.2402C91.4054 55.2402 91.1894 55.1602 91.0294 55.0002C90.8854 54.8242 90.8134 54.5842 90.8134 54.2802L90.8134 43.9602C90.8134 43.6562 90.8854 43.4242 91.0294 43.2642C91.1734 43.0882 91.3894 43.0002 91.6774 43.0002C91.9494 43.0002 92.1574 43.0882 92.3014 43.2642C92.4614 43.4242 92.5414 43.6562 92.5414 43.9602L92.5414 45.3762C93.1334 44.5922 93.8454 44.0002 94.6774 43.6002C95.5254 43.2002 96.4534 43.0002 97.4614 43.0002C98.9814 43.0002 100.149 43.4242 100.965 44.2722C101.797 45.1202 102.213 46.3362 102.213 47.9202L102.213 54.2802C102.213 54.5842 102.133 54.8242 101.973 55.0002C101.813 55.1602 101.597 55.2402 101.325 55.2402C101.037 55.2402 100.821 55.1602 100.677 55.0002C100.533 54.8242 100.461 54.5842 100.461 54.2802L100.461 47.9202C100.461 45.6482 99.3894 44.5122 97.2454 44.5122C95.8374 44.5122 94.7014 44.9282 93.8374 45.7602C92.9894 46.5922 92.5654 47.6962 92.5654 49.0722L92.5654 54.2802C92.5654 54.5682 92.4854 54.8002 92.3254 54.9762C92.1814 55.1522 91.9654 55.2402 91.6774 55.2402ZM113.477 52.6242C113.653 52.7682 113.741 52.9362 113.741 53.1282C113.741 53.2882 113.669 53.4802 113.525 53.7042C113.189 54.1682 112.725 54.5442 112.133 54.8322C111.541 55.1042 110.933 55.2402 110.309 55.2402C109.253 55.2402 108.421 54.9282 107.813 54.3042C107.205 53.6802 106.901 52.8242 106.901 51.7362L106.901 44.7042L105.605 44.7042C104.965 44.7042 104.645 44.4562 104.645 43.9602C104.645 43.7362 104.725 43.5602 104.885 43.4322C105.061 43.3042 105.301 43.2402 105.605 43.2402L106.901 43.2402L106.901 39.1362C106.901 38.8322 106.973 38.6002 107.117 38.4402C107.277 38.2642 107.501 38.1762 107.789 38.1762C108.061 38.1762 108.269 38.2642 108.413 38.4402C108.573 38.6002 108.653 38.8322 108.653 39.1362L108.653 43.2402L111.917 43.2402C112.205 43.2402 112.429 43.3042 112.589 43.4322C112.765 43.5442 112.853 43.7202 112.853 43.9602C112.853 44.4562 112.541 44.7042 111.917 44.7042L108.653 44.7042L108.653 51.8802C108.653 53.1122 109.229 53.7282 110.381 53.7282C110.749 53.7282 111.085 53.6562 111.389 53.5122C111.693 53.3682 111.997 53.1362 112.301 52.8162C112.541 52.5602 112.773 52.4322 112.997 52.4322C113.141 52.4322 113.301 52.4962 113.477 52.6242ZM117.417 55.2402C117.145 55.2402 116.929 55.1602 116.769 55.0002C116.609 54.8242 116.529 54.5842 116.529 54.2802L116.529 38.9202C116.529 38.6162 116.609 38.3842 116.769 38.2242C116.929 38.0482 117.145 37.9602 117.417 37.9602C117.705 37.9602 117.929 38.0482 118.089 38.2242C118.249 38.3842 118.329 38.6162 118.329 38.9202L118.329 45.6162L128.865 45.6162L128.865 38.9202C128.865 38.6162 128.945 38.3842 129.105 38.2242C129.265 38.0482 129.489 37.9602 129.777 37.9602C130.049 37.9602 130.265 38.0482 130.425 38.2242C130.585 38.3842 130.665 38.6162 130.665 38.9202L130.665 54.2802C130.665 54.5842 130.585 54.8242 130.425 55.0002C130.265 55.1602 130.049 55.2402 129.777 55.2402C129.505 55.2402 129.281 55.1602 129.105 55.0002C128.945 54.8242 128.865 54.5842 128.865 54.2802L128.865 47.1282L118.329 47.1282L118.329 54.2802C118.329 54.5842 118.249 54.8242 118.089 55.0002C117.929 55.1602 117.705 55.2402 117.417 55.2402ZM139.163 55.2402C137.595 55.2402 136.363 54.7922 135.467 53.8962C134.587 53.0002 134.147 51.7522 134.147 50.1522L134.147 43.9602C134.147 43.6562 134.227 43.4242 134.387 43.2642C134.547 43.0882 134.763 43.0002 135.035 43.0002C135.307 43.0002 135.515 43.0882 135.659 43.2642C135.819 43.4242 135.899 43.6562 135.899 43.9602L135.899 50.1522C135.899 51.2882 136.203 52.1682 136.811 52.7922C137.419 53.4162 138.267 53.7282 139.355 53.7282C140.219 53.7282 140.987 53.5362 141.659 53.1522C142.331 52.7682 142.851 52.2322 143.219 51.5442C143.603 50.8562 143.795 50.0642 143.795 49.1682L143.795 43.9602C143.795 43.6562 143.867 43.4242 144.011 43.2642C144.171 43.0882 144.395 43.0002 144.682 43.0002C144.955 43.0002 145.163 43.0882 145.307 43.2642C145.467 43.4242 145.547 43.6562 145.547 43.9602L145.547 54.2802C145.547 54.5842 145.467 54.8242 145.307 55.0002C145.163 55.1602 144.955 55.2402 144.682 55.2402C144.395 55.2402 144.171 55.1522 144.011 54.9762C143.867 54.8002 143.795 54.5682 143.795 54.2802L143.795 52.8642C143.203 53.6322 142.515 54.2242 141.731 54.6402C140.947 55.0402 140.091 55.2402 139.163 55.2402ZM149.754 55.2402C149.482 55.2402 149.266 55.1602 149.106 55.0002C148.962 54.8242 148.89 54.5842 148.89 54.2802L148.89 37.7442C148.89 37.4402 148.962 37.2082 149.106 37.0482C149.266 36.8722 149.482 36.7842 149.754 36.7842C150.026 36.7842 150.242 36.8722 150.402 37.0482C150.562 37.2082 150.642 37.4402 150.642 37.7442L150.666 45.4482C152.01 43.8162 153.73 43.0002 155.826 43.0002C157.122 43.0002 158.25 43.2482 159.21 43.7442C160.17 44.2402 160.906 44.9522 161.418 45.8802C161.946 46.7922 162.21 47.8722 162.21 49.1202C162.21 51.0722 161.65 52.5842 160.53 53.6562C159.41 54.7122 157.834 55.2402 155.802 55.2402C153.546 55.2402 151.826 54.4082 150.642 52.7442L150.642 54.2802C150.642 54.5682 150.562 54.8002 150.402 54.9762C150.258 55.1522 150.042 55.2402 149.754 55.2402ZM155.682 53.7282C157.25 53.7282 158.434 53.3442 159.234 52.5762C160.034 51.7922 160.434 50.6402 160.434 49.1202C160.434 47.6802 160.01 46.5522 159.162 45.7362C158.314 44.9202 157.154 44.5122 155.682 44.5122C154.722 44.5122 153.858 44.7122 153.09 45.1122C152.322 45.4962 151.722 46.0402 151.29 46.7442C150.858 47.4482 150.642 48.2402 150.642 49.1202C150.642 50.5442 151.09 51.6722 151.986 52.5042C152.882 53.3202 154.114 53.7282 155.682 53.7282Z" fill="#2670FF"/>
<path d="M85.3132 0.0224914C82.4709 0.265036 81.1293 0.5 79.1131 1.0912L78.1809 1.36406L78.6735 1.86431C78.9464 2.14475 79.1738 2.40245 79.1738 2.44035C79.1738 2.48583 78.484 2.91786 77.6351 3.4181C73.3073 5.95724 69.6388 8.34478 68.5928 9.29979C68.282 9.58023 68.2669 9.58781 67.471 9.64087C65.7505 9.76214 64.0982 9.42864 63.1356 8.76923L62.8021 8.53426L61.9077 8.61764C56.7612 9.1103 50.7658 9.97437 48.5223 10.5428C47.9387 10.6944 47.2869 10.8157 47.0746 10.8157C45.8089 10.8157 43.8609 11.6873 42.3071 12.9455C41.7462 13.4003 41.5568 13.5064 41.0262 13.6656C40.0257 13.9612 39.4042 14.2113 38.3961 14.7343C37.1682 15.3634 36.1905 16.0607 35.2734 16.9627L34.5306 17.6979L34.5306 18.0996C34.5306 18.615 34.667 20.7903 34.7579 21.7226L34.8262 22.4275L34.4093 23.0187L34 23.6099L34.432 23.8145C36.5846 24.815 40.579 25.573 44.4521 25.717L45.8164 25.77L45.8392 25.0576L45.8619 24.3527L46.1802 24.292C46.7487 24.2011 46.8851 24.2845 47.2262 24.959C47.6431 25.7928 47.9538 26.2172 48.6587 26.9449C49.9397 28.2637 51.2888 28.9762 53.1155 29.2793C55.4954 29.6735 57.8754 28.9458 59.7324 27.248C60.3236 26.7099 61.0815 25.6867 61.415 24.9893C61.5666 24.6786 61.7258 24.3981 61.7713 24.3602C61.8167 24.3299 62.1123 24.3148 62.4231 24.3223L62.9916 24.3451L62.9764 24.8453L62.9612 25.3532L63.507 25.3986C64.0754 25.4441 86.7988 25.5578 95.5455 25.5578L100.586 25.5578L100.586 25.1409C100.593 24.9135 100.616 24.6786 100.646 24.6255C100.692 24.5649 100.912 24.5346 101.306 24.5346L101.905 24.5346L102.215 25.1182C103.095 26.8084 104.694 28.2409 106.399 28.8625C107.445 29.249 107.976 29.3324 109.264 29.34C110.454 29.3476 110.795 29.2945 111.766 28.9913C113.615 28.4077 115.229 26.9979 116.245 25.0803L116.503 24.5952L117.473 24.5573C118.557 24.5194 118.663 24.5497 118.663 24.959C118.663 25.194 118.671 25.2091 118.913 25.1713C120.687 24.9211 127.349 23.9889 127.607 23.9585C128.236 23.8752 128.531 23.6705 129.532 22.5942C130.062 22.0258 130.555 21.4346 130.639 21.2678C130.805 20.9419 130.836 20.3507 130.707 20.0096C130.563 19.6382 130.616 18.2133 130.828 16.8035C131.177 14.5448 131.108 14.3477 129.54 12.8243C128.592 11.8996 128.418 11.6949 128.213 11.2477C128.092 10.9673 127.971 10.7399 127.955 10.7399C127.948 10.7399 127.137 10.5352 126.159 10.2851L124.385 9.83794L124.385 9.45138L124.393 9.07241L123.931 9.07241C123.681 9.07241 123.241 9.04967 122.961 9.01935L122.445 8.97387L122.46 8.57216C122.475 8.34478 122.468 8.14771 122.445 8.13255C122.43 8.10981 122.021 8.14771 121.543 8.20834C121.066 8.2614 120.641 8.31446 120.611 8.31446C120.573 8.31446 120.558 8.06433 120.565 7.76115C120.573 7.46555 120.558 7.20027 120.527 7.18511C120.497 7.16995 120.141 7.21543 119.732 7.29123L118.989 7.42766L118.087 7.10174C116.397 6.49538 111.735 4.9719 109.871 4.41102C101.389 1.86431 96.023 0.65159 91.1115 0.166502C89.9746 0.0528087 86.0711 -0.045723 85.3132 0.0224914ZM91.3768 2.37214C92.9988 2.52372 94.7269 2.77385 94.8482 2.87238C94.9012 2.92544 94.9391 3.03155 94.9164 3.11493C94.8861 3.26651 94.4692 4.61567 93.4535 7.83695L93.0215 9.21642L92.5592 9.25431C92.3015 9.27705 90.3384 9.35285 88.1934 9.41348C86.0484 9.4817 83.388 9.56507 82.2814 9.60297C81.1748 9.64087 79.4997 9.69393 78.5523 9.72424L76.8317 9.7773L76.7862 9.4817C76.5589 8.09465 75.8464 7.17753 74.9899 7.17753C73.9288 7.17753 72.5341 8.07949 71.5412 9.41348C71.1698 9.91373 71.0713 9.96679 70.4422 9.97437C69.9799 9.98194 69.851 9.89857 70.0178 9.7015C70.1542 9.52718 75.9828 5.65405 77.1728 4.934C79.1738 3.73644 81.0459 2.95576 82.6603 2.63742C84.9797 2.19781 88.3829 2.09169 91.3768 2.37214ZM98.7137 3.66065C103.891 4.94158 108.211 6.57117 108.613 7.39734C108.787 7.75357 108.628 7.9658 108.052 8.14771C107.559 8.30688 104.952 8.53426 99.6005 8.87534C97.1978 9.03451 96.546 9.04209 96.4399 8.93598C96.3717 8.86776 96.402 8.21592 96.5611 6.13914C96.6824 4.64598 96.7885 3.40295 96.8113 3.36505C96.8795 3.25136 97.3418 3.31957 98.7137 3.66065ZM93.7946 9.50444C93.969 9.70908 94.2494 10.1563 94.4237 10.5049L94.7496 11.1416L94.7421 12.0208C94.7421 12.6651 94.6966 13.0744 94.5753 13.5443C94.0978 15.3937 92.8548 17.9783 91.7936 19.3426C90.3081 21.2451 88.4208 22.4805 86.3743 22.8974C85.9347 22.9808 84.7599 23.0263 81.296 23.0945C76.9378 23.1703 72.5948 23.2612 68.4033 23.3673C67.039 23.4052 66.372 23.3976 66.3417 23.3446C66.2811 23.2461 65.7732 16.7353 65.705 15.2876C65.6595 14.1279 65.7429 13.4306 66.0234 12.612C66.4706 11.3311 67.9258 9.47412 68.2366 9.7773C68.2593 9.80762 68.0243 10.0956 67.7212 10.4216C67.0996 11.0886 66.7586 11.6115 66.4478 12.3846C66.1143 13.2108 66.0309 13.6656 66.0234 14.6812C66.0234 16.038 66.5767 22.7989 66.6979 22.9277C66.7813 23.0111 67.4938 23.0111 70.7302 22.9429C72.8904 22.8974 77.1728 22.814 80.2349 22.7534C86.397 22.6397 86.3137 22.6473 87.678 22.1091C88.5345 21.7756 89.6562 21.0556 90.4369 20.3355C91.4905 19.3654 92.3166 18.0844 93.3399 15.8257C94.2191 13.8626 94.3479 13.4458 94.3934 12.4377C94.4389 11.2174 94.2039 10.4746 93.5293 9.75456C93.3474 9.5575 93.1958 9.34527 93.1958 9.26947C93.1958 9.03451 93.4839 9.1482 93.7946 9.50444ZM47.4839 10.9976C47.5521 11.081 47.4915 11.2022 47.1807 11.5736C46.2485 12.6802 44.4597 14.0446 42.9969 14.757C41.678 15.3937 40.1697 15.8257 40.0257 15.5984C39.8514 15.3028 41.5643 13.6807 43.1863 12.612C44.3157 11.8692 45.7558 11.225 46.8472 10.9749C47.2869 10.8763 47.3854 10.8763 47.4839 10.9976ZM128.425 12.415C128.607 12.7712 128.774 13.1956 128.797 13.37L128.835 13.6732L127.683 13.7186C127.046 13.749 125.5 13.7717 124.249 13.7717C122.18 13.7717 121.915 13.7565 121.392 13.6125C120.755 13.4458 119.535 12.8697 119.557 12.7485C119.565 12.6423 119.83 12.6045 123.59 12.18C125.447 11.9754 127.069 11.7934 127.19 11.7783C127.319 11.7555 127.569 11.748 127.758 11.7555L128.099 11.7631L128.425 12.415ZM55.6016 15.1133C56.7461 15.3937 58.2165 16.2123 58.982 16.993C59.7551 17.7888 60.4221 19.1001 60.6495 20.2673C60.9527 21.8742 60.604 23.428 59.5884 24.9439C58.6713 26.3233 57.7693 27.0131 56.2458 27.5361C55.4272 27.8089 54.1236 27.8696 53.1761 27.6801C52.2059 27.483 51.0539 27.0282 50.5385 26.6341C49.3409 25.7094 48.4541 24.4209 48.0827 23.0566C47.5446 21.0935 48.1585 18.5544 49.5455 17.0764C50.6218 15.9243 52.0468 15.1815 53.593 14.9541C53.9795 14.901 55.0862 14.9844 55.6016 15.1133ZM110.735 15.0981C111.834 15.3861 112.652 15.8333 113.486 16.6064C115.828 18.7817 116.291 22.0788 114.646 24.8453C113.842 26.2021 112.402 27.2632 110.818 27.6725C110.144 27.8468 108.984 27.9605 108.469 27.9074C105.99 27.6497 103.58 25.5351 102.935 23.0566C102.45 21.192 103.034 18.7514 104.33 17.2052C105.808 15.4392 108.567 14.5372 110.735 15.0981ZM37.8125 17.9025C38.3885 18.0541 38.7523 18.2436 39.101 18.5847C39.3587 18.8424 39.7604 19.5018 39.7604 19.6837C39.7604 19.7292 39.3435 19.7595 38.5856 19.7595L37.4108 19.7595L37.4108 19.9793L37.4108 20.2067L36.5694 20.2294C36.1071 20.2446 35.6675 20.2294 35.5993 20.1991C35.5159 20.1688 35.4477 20.0399 35.4174 19.8732C35.3946 19.714 35.2885 19.5169 35.1748 19.4184C34.8489 19.1152 34.9323 18.5468 35.3491 18.2057C35.8342 17.8191 36.9636 17.6827 37.8125 17.9025ZM37.4259 20.5781C37.4714 20.6236 37.5093 20.8585 37.5169 21.1011L37.5245 21.5407L36.6756 21.5634C35.713 21.5862 35.7281 21.5937 35.6296 20.9419C35.5917 20.669 35.6069 20.5553 35.6826 20.5023C35.8115 20.4113 37.3274 20.4795 37.4259 20.5781ZM37.4108 21.8818C37.4108 22.0258 37.1834 22.5184 37.047 22.6624C36.8802 22.8443 36.4027 23.0945 36.2132 23.0945C36.0919 23.0945 36.0465 22.9959 35.9479 22.5033C35.8873 22.1849 35.8494 21.8969 35.8721 21.859C35.9252 21.7756 37.4108 21.7908 37.4108 21.8818Z" fill="#C0C0C0"/>
<path d="M53.1082 15.553C50.3947 16.1442 48.8637 17.8117 48.4392 20.6464C48.3028 21.5559 48.3028 22.0562 48.4316 22.7914C48.75 24.5271 49.7808 25.8383 51.471 26.6569C52.5852 27.1951 53.3204 27.3694 54.3891 27.3618C57.4588 27.3467 59.8843 25.2244 60.3163 22.1926C60.5134 20.7904 59.9449 18.8576 58.9747 17.6222C57.6786 15.9774 55.2077 15.0982 53.1082 15.553Z" fill="#C0C0C0"/>
<path d="M108.332 15.515C106.968 15.7575 105.899 16.2957 105.012 17.1825C104.467 17.7206 104.3 17.948 103.981 18.5998C103.458 19.6382 103.314 20.2901 103.314 21.5786C103.322 22.5487 103.337 22.6397 103.565 23.2536C104.391 25.429 105.884 26.7933 107.915 27.2329C108.673 27.392 110.144 27.392 110.78 27.2253C112.554 26.7705 113.858 25.7776 114.562 24.3678C115.04 23.3976 115.192 22.7155 115.199 21.5028C115.207 20.2673 115.085 19.714 114.608 18.7363C113.873 17.2204 112.705 16.235 111.008 15.6666C110.454 15.4771 108.976 15.3937 108.332 15.515Z" fill="#C0C0C0"/>
<path d="M76.5592 2.09164C75.2556 2.69042 74.293 3.15276 70.9125 4.81267C69.8893 5.31292 68.2066 6.13908 67.1607 6.64691C65.3719 7.52613 63.8181 8.26134 63.4164 8.43567C63.2421 8.51147 63.2496 8.51905 63.6286 8.68579C64.6973 9.14056 67.0167 9.45132 67.767 9.23152C67.8959 9.2012 69.0025 8.50389 70.2304 7.69288C73.1333 5.77527 75.5663 4.22147 77.1277 3.2892C77.8174 2.8799 78.4086 2.51609 78.4465 2.47819C78.5072 2.41755 77.9842 1.50043 77.8856 1.50043C77.8629 1.50043 77.2717 1.76572 76.5592 2.09164Z" fill="#C0C0C0"/>
</svg>
