<svg width="25" height="25" viewBox="0 0 25 25" fill="none" xmlns="http://www.w3.org/2000/svg">
<g clip-path="url(#clip0_80_83)">
<path d="M11.2695 17.6093C9.3314 17.4072 7.58393 16.9299 6.08782 15.7597C5.90218 15.6142 5.71052 15.4738 5.54112 15.3112C4.88627 14.6823 4.82029 13.962 5.33846 13.2197C5.78174 12.5845 6.52587 12.4146 7.29932 12.7793C7.44909 12.85 7.59179 12.9382 7.72846 13.033C10.5167 14.9488 14.3471 15.0017 17.1458 13.1192C17.4231 12.9066 17.7195 12.7332 18.063 12.6447C18.7309 12.4732 19.3538 12.7186 19.7123 13.303C20.1218 13.9704 20.1165 14.6218 19.612 15.14C18.838 15.9344 17.9072 16.5091 16.873 16.9102C15.895 17.2894 14.8239 17.4802 13.7637 17.607C13.9237 17.7811 13.9991 17.8667 14.0991 17.9672C15.5387 19.4136 16.9845 20.8539 18.4193 22.3048C18.9082 22.7991 19.0103 23.412 18.7411 23.987C18.4468 24.6154 17.7881 25.0289 17.1421 24.9846C16.7329 24.9563 16.4137 24.7526 16.1301 24.467C15.0438 23.3738 13.937 22.3008 12.8727 21.187C12.5629 20.8631 12.4139 20.9244 12.1406 21.2056C11.0477 22.3307 9.93702 23.4385 8.81978 24.54C8.31811 25.0346 7.72113 25.1236 7.13934 24.8411C6.52089 24.5413 6.12736 23.91 6.15773 23.2756C6.17868 22.8465 6.38971 22.5187 6.68428 22.2246C8.1089 20.8021 9.52961 19.3759 10.9508 17.951C11.0448 17.8562 11.1325 17.7557 11.2695 17.6093Z" fill="#FF7A00"/>
<path d="M12.4503 12.6541C8.9928 12.6423 6.15768 9.77605 6.17784 6.31306C6.19774 2.81184 9.03469 -0.00966292 12.5262 2.48731e-05C16.0248 0.00945083 18.833 2.87154 18.8154 6.40915C18.7976 9.86508 15.9429 12.6662 12.4503 12.6541ZM15.5925 6.32144C15.5865 4.60199 14.2171 3.23313 12.5011 3.23156C10.7706 3.22973 9.38895 4.62346 9.40231 6.35862C9.41513 8.07153 10.7963 9.4307 12.5171 9.42441C14.2326 9.41839 15.5983 8.04063 15.5925 6.32144Z" fill="#FF7A00"/>
</g>
<defs>
<clipPath id="clip0_80_83">
<rect width="25" height="25" fill="white"/>
</clipPath>
</defs>
</svg>
