<svg width="32" height="32" viewBox="0 0 32 32" fill="none" xmlns="http://www.w3.org/2000/svg">
<g clip-path="url(#clip0_76_157)">
<path d="M29.6406 12.8427C29.5829 12.6653 29.4768 12.5075 29.3342 12.3872C29.1915 12.2669 29.0181 12.1889 28.8334 12.1621L20.5854 10.9629L16.8969 3.48924C16.805 3.33311 16.6739 3.20369 16.5165 3.11377C16.3592 3.02386 16.1812 2.97656 16 2.97656C15.8188 2.97656 15.6407 3.02386 15.4834 3.11377C15.3261 3.20369 15.195 3.33311 15.103 3.48924L11.4145 10.9629L3.16651 12.1621C2.98192 12.1889 2.80852 12.2668 2.66591 12.3871C2.5233 12.5073 2.41716 12.665 2.35951 12.8424C2.30185 13.0198 2.29497 13.2098 2.33965 13.3909C2.38432 13.572 2.47877 13.7369 2.61231 13.8672L8.58058 19.6855L7.17181 27.8994C7.1404 28.0833 7.16104 28.2723 7.2314 28.4451C7.30177 28.6178 7.41905 28.7675 7.57 28.8771C7.72095 28.9867 7.89955 29.0519 8.08562 29.0653C8.27168 29.0788 8.4578 29.0399 8.62293 28.9531L15.9999 25.0752L23.3769 28.9531C23.5421 29.0399 23.7282 29.0788 23.9143 29.0654C24.1003 29.0519 24.2789 28.9867 24.4299 28.8771C24.5809 28.7675 24.6982 28.6179 24.7685 28.4451C24.8389 28.2723 24.8595 28.0833 24.8281 27.8994L23.4194 19.6855L29.3877 13.8672C29.5212 13.737 29.6157 13.5721 29.6604 13.3911C29.7051 13.21 29.6982 13.0201 29.6406 12.8427ZM21.6464 18.6201C21.5305 18.7333 21.4437 18.873 21.3936 19.0271C21.3435 19.1812 21.3316 19.3451 21.3588 19.5049L22.5141 26.2402L16.4653 23.0605C16.3218 22.9848 16.1621 22.9453 15.9999 22.9453C15.8378 22.9453 15.678 22.9848 15.5346 23.0605L9.48577 26.2402L10.641 19.5049C10.6683 19.3451 10.6563 19.1812 10.6062 19.0271C10.5561 18.873 10.4694 18.7333 10.3535 18.6201L5.45945 13.8496L12.2226 12.8662C12.383 12.843 12.5354 12.781 12.6665 12.6858C12.7975 12.5905 12.9035 12.4647 12.9751 12.3193L15.9999 6.19139L19.0248 12.3193C19.0964 12.4647 19.2024 12.5905 19.3335 12.6858C19.4646 12.781 19.6169 12.843 19.7773 12.8662L26.5405 13.8496L21.6464 18.6201Z" fill="#2670FF"/>
<path d="M29.3877 13.8672L23.4194 19.6855L24.8281 27.8994C24.8596 28.0833 24.8389 28.2723 24.7685 28.4451C24.6982 28.6178 24.5809 28.7675 24.4299 28.8771C24.279 28.9867 24.1004 29.0519 23.9143 29.0653C23.7283 29.0788 23.5421 29.0399 23.377 28.9531L16 25.0752L8.62301 28.9531C8.45788 29.0399 8.27176 29.0788 8.08568 29.0654C7.89961 29.0519 7.721 28.9867 7.57004 28.8771C7.41908 28.7675 7.30179 28.6179 7.23143 28.4451C7.16106 28.2723 7.14042 28.0833 7.17184 27.8994L8.58053 19.6855L2.61231 13.8672C2.47877 13.7369 2.38432 13.572 2.33965 13.3909C2.29497 13.2098 2.30185 13.0198 2.35951 12.8424C2.41716 12.665 2.5233 12.5073 2.66591 12.3871C2.80852 12.2668 2.98192 12.1889 3.16651 12.1621L11.4145 10.9629L15.103 3.48924C15.195 3.33311 15.3261 3.20369 15.4834 3.11377C15.6407 3.02386 15.8188 2.97656 16 2.97656C16.1812 2.97656 16.3592 3.02386 16.5166 3.11377C16.6739 3.20369 16.805 3.33311 16.897 3.48924L20.5854 10.9629L28.8334 12.1621C29.018 12.1889 29.1914 12.2668 29.334 12.3871C29.4767 12.5073 29.5828 12.665 29.6404 12.8424C29.6981 13.0198 29.705 13.2098 29.6603 13.3909C29.6156 13.572 29.5213 13.7369 29.3877 13.8672Z" fill="#2670FF"/>
</g>
<defs>
<clipPath id="clip0_76_157">
<rect width="32" height="32" fill="white"/>
</clipPath>
</defs>
</svg>
